<svg width="254" height="469" viewBox="0 0 254 469" fill="none" xmlns="http://www.w3.org/2000/svg">
<path d="M465.482 218.731C465.748 222.769 465.913 226.834 465.973 230.926L464.974 230.94C464.991 232.125 465 233.311 465 234.5C465 235.689 464.991 236.875 464.974 238.06L465.973 238.074C465.913 242.166 465.748 246.231 465.482 250.269L464.484 250.203C464.328 252.566 464.137 254.92 463.912 257.263L464.907 257.358C464.516 261.428 464.022 265.466 463.426 269.472L462.437 269.325C462.089 271.672 461.705 274.007 461.288 276.33L462.272 276.507C461.55 280.527 460.725 284.512 459.802 288.458L458.828 288.23C458.289 290.535 457.716 292.827 457.109 295.105L458.076 295.362C457.025 299.307 455.875 303.211 454.628 307.071L453.676 306.763C452.949 309.015 452.188 311.252 451.395 313.473L452.337 313.81C450.966 317.651 449.497 321.446 447.935 325.192L447.012 324.807C446.101 326.992 445.157 329.161 444.182 331.312L445.093 331.725C443.41 335.438 441.633 339.099 439.766 342.705L438.878 342.246C437.791 344.346 436.672 346.428 435.524 348.491L436.397 348.977C434.415 352.538 432.343 356.04 430.184 359.483L429.337 358.952C428.081 360.955 426.796 362.937 425.481 364.898L426.312 365.455C424.045 368.839 421.692 372.16 419.256 375.415L418.456 374.816C417.039 376.71 415.594 378.581 414.122 380.429L414.905 381.052C412.368 384.237 409.751 387.353 407.056 390.399L406.307 389.736C404.741 391.507 403.148 393.253 401.529 394.974L402.258 395.659C399.47 398.624 396.606 401.516 393.669 404.331L392.977 403.609C391.271 405.244 389.54 406.854 387.785 408.437L388.455 409.179C385.434 411.904 382.343 414.551 379.183 417.116L378.553 416.34C376.718 417.829 374.861 419.291 372.981 420.724L373.587 421.519C370.354 423.985 367.054 426.368 363.692 428.665L363.128 427.84C361.178 429.172 359.207 430.475 357.215 431.748L357.754 432.59C354.329 434.779 350.844 436.881 347.301 438.892L346.808 438.023C344.754 439.188 342.681 440.323 340.589 441.427L341.056 442.312C337.464 444.208 333.816 446.012 330.117 447.722L329.697 446.814C327.553 447.805 325.391 448.764 323.212 449.69L323.603 450.61C319.868 452.199 316.082 453.692 312.25 455.087L311.908 454.147C309.692 454.954 307.46 455.727 305.214 456.467L305.526 457.417C301.673 458.686 297.775 459.857 293.836 460.926L293.574 459.961C291.299 460.579 289.01 461.163 286.707 461.712L286.939 462.685C282.997 463.625 279.015 464.465 274.998 465.201L274.818 464.217C272.496 464.642 270.162 465.033 267.816 465.388L267.966 466.377C263.962 466.983 259.925 467.487 255.856 467.886L255.759 466.891C253.416 467.12 251.064 467.315 248.702 467.474L248.769 468.471C244.731 468.743 240.666 468.911 236.574 468.973L236.559 467.973C235.375 467.991 234.189 468 233 468C231.811 468 230.625 467.991 229.441 467.973L229.426 468.973C225.334 468.911 221.269 468.743 217.231 468.471L217.298 467.474C214.936 467.315 212.583 467.12 210.241 466.891L210.144 467.886C206.075 467.487 202.038 466.983 198.034 466.377L198.184 465.388C195.838 465.033 193.504 464.642 191.182 464.217L191.002 465.201C186.985 464.465 183.003 463.625 179.061 462.685L179.293 461.712C176.99 461.163 174.701 460.579 172.426 459.961L172.164 460.926C168.225 459.857 164.327 458.686 160.474 457.417L160.786 456.467C158.54 455.727 156.308 454.954 154.092 454.147L153.75 455.087C149.917 453.692 146.132 452.199 142.396 450.61L142.788 449.69C140.609 448.764 138.447 447.805 136.303 446.814L135.883 447.722C132.184 446.012 128.536 444.208 124.944 442.312L125.411 441.427C123.319 440.323 121.246 439.188 119.192 438.023L118.699 438.892C115.156 436.881 111.671 434.779 108.246 432.59L108.785 431.748C106.793 430.475 104.822 429.172 102.872 427.84L102.308 428.665C98.9458 426.368 95.6463 423.985 92.4128 421.519L93.0192 420.724C91.1393 419.291 89.2818 417.829 87.4474 416.34L86.8171 417.116C83.6574 414.551 80.5656 411.904 77.545 409.179L78.2148 408.437C76.4599 406.854 74.729 405.244 73.0229 403.609L72.3309 404.331C69.394 401.515 66.5301 398.624 63.7422 395.659L64.4707 394.974C62.852 393.253 61.2591 391.506 59.6925 389.736L58.9436 390.399C56.2487 387.353 53.6316 384.237 51.0953 381.052L51.8775 380.429C50.4055 378.581 48.9609 376.71 47.5442 374.816L46.7435 375.415C44.3083 372.16 41.9554 368.839 39.6879 365.455L40.5187 364.898C39.2044 362.937 37.919 360.955 36.6629 358.952L35.8157 359.483C33.6571 356.04 31.585 352.538 29.6025 348.977L30.4762 348.491C29.3277 346.428 28.2094 344.346 27.1219 342.246L26.2338 342.705C24.3669 339.099 22.5903 335.438 20.9072 331.725L21.818 331.312C20.8429 329.161 19.8993 326.992 18.9878 324.807L18.0649 325.192C16.5027 321.446 15.0344 317.651 13.6629 313.81L14.6047 313.473C13.8116 311.252 13.051 309.015 12.3236 306.763L11.372 307.071C10.125 303.211 8.97488 299.307 7.92438 295.362L8.89071 295.105C8.28413 292.827 7.71093 290.535 7.17165 288.23L6.19795 288.458C5.27462 284.512 4.45033 280.527 3.72788 276.507L4.71211 276.33C4.29463 274.007 3.9113 271.672 3.56266 269.325L2.57352 269.472C1.97841 265.466 1.48395 261.428 1.09283 257.358L2.08824 257.263C1.86302 254.92 1.6722 252.566 1.51631 250.203L0.518478 250.269C0.252095 246.231 0.0872596 242.166 0.0265191 238.074L1.02641 238.06C1.00882 236.875 1 235.689 1 234.5C1 233.311 1.00882 232.125 1.02641 230.94L0.0265193 230.926C0.08726 226.834 0.252096 222.769 0.518479 218.731L1.51631 218.797C1.6722 216.434 1.86302 214.08 2.08824 211.737L1.09283 211.642C1.48395 207.572 1.97841 203.534 2.57352 199.528L3.56267 199.675C3.9113 197.328 4.29463 194.993 4.71211 192.67L3.72788 192.493C4.45033 188.473 5.27462 184.488 6.19795 180.542L7.17165 180.77C7.71093 178.465 8.28414 176.173 8.89072 173.895L7.92439 173.638C8.97489 169.693 10.1251 165.789 11.372 161.929L12.3236 162.237C13.051 159.985 13.8116 157.748 14.6047 155.527L13.6629 155.19C15.0344 151.349 16.5027 147.554 18.0649 143.808L18.9878 144.193C19.8993 142.008 20.8429 139.839 21.818 137.688L20.9072 137.275C22.5903 133.562 24.3669 129.901 26.2338 126.295L27.1219 126.754C28.2094 124.654 29.3277 122.572 30.4762 120.509L29.6025 120.023C31.585 116.462 33.6571 112.96 35.8158 109.517L36.663 110.048C37.919 108.045 39.2044 106.063 40.5187 104.102L39.688 103.545C41.9555 100.161 44.3083 96.8402 46.7435 93.5851L47.5443 94.1841C48.9609 92.2904 50.4056 90.4191 51.8775 88.5709L51.0953 87.9479C53.6316 84.7632 56.2487 81.6466 58.9436 78.6012L59.6925 79.2639C61.2591 77.4935 62.852 75.7473 64.4708 74.0259L63.7423 73.3408C66.5301 70.3761 69.3941 67.4845 72.3309 64.6693L73.0229 65.3912C74.729 63.7558 76.4599 62.1463 78.2148 60.5632L77.545 59.8207C80.5657 57.0959 83.6574 54.4493 86.8171 51.8841L87.4474 52.6604C89.2819 51.1711 91.1394 49.7093 93.0192 48.2757L92.4128 47.4805C95.6464 45.0146 98.9458 42.6316 102.308 40.3347L102.872 41.1604C104.822 39.8284 106.793 38.5254 108.785 37.2522L108.246 36.4096C111.671 34.2205 115.156 32.1189 118.699 30.1078L119.192 30.9775C121.246 29.8118 123.319 28.6766 125.411 27.5727L124.944 26.6883C128.536 24.7924 132.184 22.988 135.883 21.2783L136.303 22.1861C138.447 21.1952 140.609 20.2363 142.788 19.3099L142.397 18.3896C146.132 16.8013 149.918 15.3082 153.75 13.9134L154.092 14.8531C156.308 14.0465 158.54 13.2728 160.787 12.5328L160.474 11.583C164.327 10.3139 168.225 9.14316 172.164 8.07376L172.426 9.03883C174.701 8.42113 176.99 7.83738 179.293 7.28816L179.061 6.31545C183.003 5.37496 186.985 4.53529 191.002 3.79931L191.182 4.78294C193.504 4.35756 195.838 3.96697 198.184 3.61172L198.034 2.62299C202.038 2.01651 206.075 1.51259 210.144 1.11395L210.241 2.10919C212.584 1.87966 214.936 1.68518 217.298 1.5263L217.231 0.52855C221.269 0.256999 225.334 0.0889554 229.426 0.0270337L229.441 1.02692C230.625 1.00899 231.811 1 233 1C234.189 1 235.375 1.00899 236.559 1.02692L236.574 0.0270343C240.666 0.0889565 244.731 0.257 248.769 0.528551L248.702 1.5263C251.064 1.68518 253.417 1.87966 255.759 2.10919L255.856 1.11396C259.925 1.51259 263.962 2.01652 267.966 2.623L267.816 3.61172C270.162 3.96697 272.496 4.35757 274.818 4.78294L274.998 3.79931C279.015 4.5353 282.997 5.37497 286.939 6.31546L286.707 7.28817C289.01 7.83739 291.299 8.42114 293.574 9.03885L293.836 8.07378C297.775 9.14318 301.673 10.3139 305.526 11.583L305.214 12.5328C307.46 13.2729 309.692 14.0465 311.908 14.8531L312.25 13.9134C316.083 15.3082 319.868 16.8013 323.604 18.3896L323.212 19.3099C325.391 20.2363 327.553 21.1952 329.697 22.1861L330.117 21.2784C333.816 22.988 337.464 24.7924 341.056 26.6883L340.589 27.5727C342.681 28.6767 344.754 29.8118 346.808 30.9775L347.301 30.1078C350.844 32.1189 354.329 34.2205 357.754 36.4096L357.215 37.2522C359.207 38.5254 361.178 39.8284 363.128 41.1605L363.692 40.3347C367.054 42.6316 370.354 45.0146 373.587 47.4805L372.981 48.2757C374.861 49.7093 376.718 51.1711 378.553 52.6605L379.183 51.8841C382.343 54.4493 385.434 57.0959 388.455 59.8207L387.785 60.5632C389.54 62.1463 391.271 63.7558 392.977 65.3912L393.669 64.6693C396.606 67.4845 399.47 70.3761 402.258 73.3409L401.529 74.0259C403.148 75.7473 404.741 77.4935 406.308 79.2639L407.056 78.6012C409.751 81.6466 412.368 84.7633 414.905 87.9479L414.122 88.5709C415.594 90.4192 417.039 92.2905 418.456 94.1841L419.257 93.5851C421.692 96.8402 424.045 100.161 426.312 103.545L425.481 104.102C426.796 106.063 428.081 108.045 429.337 110.048L430.184 109.517C432.343 112.96 434.415 116.462 436.397 120.023L435.524 120.509C436.672 122.572 437.791 124.654 438.878 126.754L439.766 126.295C441.633 129.901 443.41 133.562 445.093 137.275L444.182 137.688C445.157 139.839 446.101 142.008 447.012 144.193L447.935 143.808C449.497 147.554 450.966 151.349 452.337 155.19L451.395 155.527C452.188 157.748 452.949 159.985 453.676 162.237L454.628 161.929C455.875 165.789 457.025 169.693 458.076 173.638L457.109 173.895C457.716 176.173 458.289 178.465 458.828 180.77L459.802 180.542C460.725 184.488 461.55 188.473 462.272 192.493L461.288 192.67C461.705 194.993 462.089 197.328 462.437 199.675L463.426 199.528C464.022 203.534 464.516 207.572 464.907 211.642L463.912 211.737C464.137 214.08 464.328 216.434 464.484 218.797L465.482 218.731Z" stroke="#FFFFAB" stroke-width="2" stroke-dasharray="7 12"/>
<path d="M357.991 218.29C358.508 222.41 358.83 226.591 358.949 230.823L357.949 230.851C357.983 232.063 358 233.28 358 234.5C358 235.72 357.983 236.937 357.949 238.149L358.949 238.177C358.83 242.409 358.508 246.59 357.991 250.71L356.999 250.586C356.696 253.005 356.325 255.403 355.888 257.777L356.872 257.958C356.109 262.111 355.146 266.194 353.996 270.195L353.035 269.918C352.362 272.258 351.624 274.569 350.823 276.85L351.767 277.181C350.372 281.156 348.787 285.041 347.024 288.823L346.118 288.4C345.091 290.604 344.003 292.773 342.856 294.904L343.737 295.378C341.744 299.081 339.576 302.673 337.243 306.143L336.413 305.585C335.057 307.601 333.645 309.575 332.179 311.505L332.976 312.11C330.437 315.454 327.738 318.666 324.891 321.736L324.158 321.056C322.507 322.836 320.806 324.567 319.058 326.247L319.75 326.969C316.728 329.873 313.563 332.628 310.267 335.22L309.649 334.434C307.743 335.933 305.793 337.378 303.801 338.766L304.373 339.586C300.939 341.979 297.382 344.204 293.713 346.249L293.226 345.376C291.111 346.555 288.958 347.675 286.769 348.731L287.204 349.632C283.443 351.448 279.579 353.081 275.623 354.52L275.282 353.58C273.009 354.407 270.706 355.169 268.375 355.863L268.661 356.822C264.669 358.011 260.594 359.007 256.448 359.796L256.261 358.814C253.89 359.266 251.495 359.649 249.078 359.963L249.207 360.955C245.089 361.49 240.909 361.824 236.677 361.947L236.648 360.947C235.436 360.982 234.22 361 233 361C231.78 361 230.564 360.982 229.352 360.947L229.323 361.947C225.091 361.824 220.911 361.49 216.793 360.955L216.922 359.963C214.505 359.649 212.11 359.266 209.739 358.814L209.552 359.796C205.406 359.007 201.331 358.011 197.339 356.822L197.625 355.863C195.294 355.169 192.991 354.407 190.718 353.58L190.377 354.52C186.421 353.081 182.557 351.448 178.796 349.632L179.231 348.731C177.042 347.675 174.889 346.555 172.774 345.376L172.287 346.249C168.618 344.204 165.061 341.979 161.627 339.586L162.199 338.766C160.207 337.378 158.257 335.933 156.351 334.434L155.733 335.22C152.437 332.628 149.272 329.873 146.25 326.969L146.942 326.247C145.194 324.567 143.493 322.836 141.842 321.056L141.109 321.736C138.262 318.666 135.563 315.454 133.024 312.11L133.821 311.505C132.355 309.575 130.943 307.601 129.587 305.585L128.757 306.143C126.424 302.673 124.256 299.081 122.263 295.378L123.144 294.904C121.997 292.773 120.909 290.604 119.882 288.4L118.976 288.823C117.213 285.041 115.628 281.156 114.233 277.181L115.177 276.85C114.376 274.569 113.638 272.258 112.965 269.918L112.004 270.195C110.854 266.194 109.891 262.111 109.128 257.958L110.112 257.777C109.675 255.403 109.304 253.005 109.001 250.586L108.009 250.71C107.492 246.59 107.17 242.409 107.051 238.177L108.051 238.149C108.017 236.937 108 235.72 108 234.5C108 233.28 108.017 232.063 108.051 230.851L107.051 230.823C107.17 226.591 107.492 222.41 108.009 218.29L109.001 218.414C109.304 215.995 109.675 213.597 110.112 211.223L109.128 211.042C109.891 206.889 110.854 202.806 112.004 198.805L112.965 199.082C113.638 196.742 114.376 194.431 115.177 192.15L114.233 191.819C115.628 187.844 117.213 183.959 118.976 180.177L119.882 180.6C120.909 178.396 121.997 176.227 123.144 174.096L122.263 173.622C124.256 169.919 126.424 166.327 128.757 162.857L129.587 163.415C130.943 161.399 132.355 159.425 133.821 157.495L133.024 156.89C135.563 153.546 138.262 150.334 141.109 147.264L141.842 147.944C143.493 146.164 145.194 144.433 146.942 142.753L146.25 142.031C149.272 139.127 152.437 136.372 155.733 133.78L156.351 134.566C158.257 133.067 160.207 131.622 162.199 130.234L161.627 129.414C165.061 127.021 168.618 124.796 172.287 122.751L172.774 123.624C174.889 122.445 177.042 121.325 179.231 120.269L178.796 119.368C182.557 117.552 186.421 115.919 190.377 114.48L190.718 115.42C192.991 114.593 195.294 113.831 197.625 113.137L197.339 112.178C201.331 110.989 205.406 109.993 209.552 109.204L209.739 110.186C212.11 109.734 214.505 109.351 216.922 109.037L216.793 108.045C220.911 107.51 225.091 107.176 229.323 107.053L229.352 108.053C230.564 108.018 231.78 108 233 108C234.22 108 235.436 108.018 236.648 108.053L236.677 107.053C240.909 107.176 245.089 107.51 249.207 108.045L249.078 109.037C251.495 109.351 253.89 109.734 256.261 110.186L256.448 109.204C260.594 109.993 264.669 110.989 268.661 112.178L268.375 113.137C270.706 113.831 273.009 114.593 275.282 115.42L275.623 114.48C279.579 115.919 283.443 117.552 287.204 119.368L286.769 120.269C288.958 121.325 291.111 122.445 293.226 123.624L293.713 122.751C297.382 124.796 300.939 127.021 304.373 129.414L303.801 130.234C305.793 131.622 307.743 133.067 309.649 134.566L310.267 133.78C313.563 136.372 316.728 139.127 319.75 142.031L319.058 142.753C320.806 144.433 322.507 146.164 324.158 147.944L324.891 147.264C327.738 150.334 330.437 153.546 332.976 156.89L332.179 157.495C333.645 159.425 335.057 161.399 336.413 163.415L337.243 162.857C339.576 166.327 341.744 169.919 343.737 173.622L342.856 174.096C344.003 176.227 345.091 178.396 346.118 180.6L347.024 180.177C348.787 183.959 350.372 187.844 351.767 191.819L350.823 192.15C351.624 194.431 352.362 196.742 353.035 199.082L353.996 198.805C355.146 202.806 356.109 206.889 356.872 211.042L355.888 211.223C356.325 213.597 356.696 215.995 356.999 218.414L357.991 218.29Z" stroke="#FFFFAB" stroke-width="2" stroke-dasharray="7 12"/>
</svg>
