<svg width="175" height="235" viewBox="0 0 175 235" fill="none" xmlns="http://www.w3.org/2000/svg">
<ellipse cx="87" cy="147.5" rx="49" ry="49.5" fill="#FFE58D"/>
<path d="M172.568 131.607C173.299 135.613 173.759 139.714 173.927 143.89L172.928 143.93C172.976 145.114 173 146.304 173 147.5C173 148.696 172.976 149.886 172.928 151.07L173.927 151.11C173.759 155.286 173.299 159.387 172.568 163.393L171.585 163.213C171.155 165.566 170.632 167.885 170.017 170.167L170.983 170.427C169.903 174.44 168.545 178.338 166.933 182.1L166.014 181.706C165.075 183.898 164.048 186.044 162.938 188.138L163.821 188.606C161.883 192.263 159.694 195.764 157.278 199.088L156.469 198.5C155.07 200.425 153.593 202.29 152.044 204.09L152.802 204.743C150.11 207.869 147.203 210.802 144.102 213.517L143.443 212.765C141.655 214.33 139.803 215.822 137.89 217.237L138.485 218.041C135.178 220.486 131.693 222.702 128.054 224.665L127.579 223.785C125.492 224.91 123.354 225.951 121.169 226.904L121.569 227.82C117.815 229.457 113.924 230.835 109.918 231.932L109.654 230.968C107.375 231.592 105.058 232.125 102.707 232.561L102.89 233.544C98.8858 234.287 94.7859 234.755 90.6101 234.926L90.569 233.927C89.3854 233.975 88.1956 234 87 234C85.8044 234 84.6146 233.975 83.4309 233.927L83.3899 234.926C79.2141 234.755 75.1142 234.287 71.1104 233.544L71.2929 232.561C68.9424 232.125 66.6254 231.592 64.3462 230.968L64.082 231.932C60.0759 230.835 56.1848 229.457 52.431 227.82L52.8307 226.904C50.6456 225.951 48.5076 224.91 46.421 223.785L45.9464 224.665C42.3066 222.702 38.8218 220.486 35.5152 218.041L36.1097 217.237C34.197 215.822 32.3446 214.33 30.557 212.765L29.8982 213.517C26.7973 210.802 23.8895 207.869 21.1984 204.743L21.9563 204.09C20.4069 202.29 18.9302 200.425 17.5306 198.5L16.7218 199.088C14.3055 195.764 12.1167 192.263 10.1785 188.606L11.062 188.138C9.95198 186.044 8.92506 183.898 7.98569 181.706L7.06652 182.1C5.45455 178.338 4.09744 174.44 3.01706 170.427L3.98268 170.167C3.36834 167.885 2.84451 165.566 2.4153 163.213L1.43154 163.393C0.700785 159.387 0.241223 155.286 0.0727057 151.11L1.07189 151.07C1.02412 149.886 1 148.696 1 147.5C1 146.304 1.02412 145.114 1.07189 143.93L0.0727057 143.89C0.241223 139.714 0.700785 135.613 1.43154 131.607L2.4153 131.787C2.84451 129.434 3.36834 127.115 3.98268 124.833L3.01707 124.573C4.09745 120.56 5.45456 116.662 7.06653 112.9L7.9857 113.294C8.92506 111.102 9.95198 108.956 11.062 106.862L10.1785 106.394C12.1168 102.737 14.3055 99.2357 16.7218 95.9118L17.5306 96.4998C18.9302 94.5745 20.4069 92.7096 21.9563 90.9096L21.1984 90.2573C23.8896 87.1308 26.7973 84.1981 29.8983 81.4827L30.557 82.235C32.3446 80.6698 34.197 79.1775 36.1098 77.7631L35.5152 76.959C38.8218 74.5137 42.3066 72.298 45.9464 70.3351L46.4211 71.2153C48.5076 70.09 50.6457 69.0489 52.8307 68.0963L52.4311 67.1796C56.1849 65.5432 60.0759 64.1651 64.082 63.0678L64.3462 64.0322C66.6254 63.4079 68.9424 62.8755 71.2929 62.4392L71.1104 61.456C75.1142 60.7128 79.2141 60.2454 83.3899 60.074L83.431 61.0731C84.6146 61.0245 85.8044 61 87 61C88.1956 61 89.3854 61.0245 90.5691 61.0731L90.6101 60.074C94.7859 60.2454 98.8858 60.7128 102.89 61.456L102.707 62.4392C105.058 62.8755 107.375 63.4079 109.654 64.0322L109.918 63.0678C113.924 64.1651 117.815 65.5432 121.569 67.1796L121.169 68.0963C123.354 69.0489 125.492 70.09 127.579 71.2153L128.054 70.3351C131.693 72.298 135.178 74.5138 138.485 76.9591L137.89 77.7631C139.803 79.1776 141.655 80.6698 143.443 82.2351L144.102 81.4827C147.203 84.1981 150.11 87.1308 152.802 90.2573L152.044 90.9097C153.593 92.7096 155.07 94.5745 156.469 96.4998L157.278 95.9118C159.694 99.2357 161.883 102.737 163.821 106.394L162.938 106.862C164.048 108.956 165.075 111.102 166.014 113.294L166.933 112.9C168.545 116.662 169.903 120.56 170.983 124.573L170.017 124.833C170.632 127.115 171.155 129.434 171.585 131.787L172.568 131.607Z" stroke="#FFE58D" stroke-width="2" stroke-dasharray="7 12"/>
<circle cx="155.5" cy="19.5" r="19.5" fill="#FBCA27"/>
</svg>
