<svg width="30" height="43" viewBox="0 0 30 43" fill="none" xmlns="http://www.w3.org/2000/svg">
<g clip-path="url(#clip0_2977_37906)">
<path d="M19.5666 0.715042C18.1365 0.260015 16.5763 0 14.9837 0C10.4008 0 6.27298 2.08012 3.51025 5.36281L10.5958 11.3107L19.5666 0.715042Z" fill="#1A73E8"/>
<path d="M3.51029 5.36279C1.33261 7.96294 0 11.3431 0 14.9834C0 17.811 0.552546 20.0861 1.49512 22.1338L10.5959 11.3106L3.51029 5.36279Z" fill="#EA4335"/>
<path d="M15.0163 9.26309C18.2016 9.26309 20.7693 11.8307 20.7693 15.0159C20.7693 16.4135 20.2493 17.7136 19.4042 18.7211C19.4042 18.7211 23.9221 13.3258 28.3424 8.09302C26.5223 4.58281 23.3695 1.91766 19.5667 0.715088L10.5959 11.3107C11.6685 10.0756 13.2287 9.26309 15.0163 9.26309Z" fill="#4285F4"/>
<path d="M15.0162 20.7361C11.831 20.7361 9.26326 18.1684 9.26326 14.9833C9.26326 13.5857 9.7508 12.2856 10.5959 11.3105L1.49512 22.1337C3.05525 25.5789 5.65546 28.374 8.32069 31.8517L19.4041 18.6885C18.3315 19.9561 16.7714 20.7361 15.0162 20.7361Z" fill="#FBCA27"/>
<path d="M19.2092 35.4921C24.2146 27.6592 30.0326 24.1165 30.0326 15.0159C30.0326 12.5133 29.4151 10.1731 28.3425 8.09302L8.3208 31.8519C9.16587 32.957 10.0434 34.2245 10.8885 35.5246C13.9438 40.2374 13.0987 43.0326 15.0489 43.0326C16.999 43.0326 16.154 40.2049 19.2092 35.4921Z" fill="#34A853"/>
</g>
<defs>
<clipPath id="clip0_2977_37906">
<rect width="30" height="43" fill="white"/>
</clipPath>
</defs>
</svg>
