<svg xmlns="http://www.w3.org/2000/svg" width="30" height="43" viewBox="0 0 7.937 11.377" xmlns:v="https://vecta.io/nano"><defs><clipPath id="A"><path fill="#fff" d="M0 0h30v43H0z"/></clipPath></defs><g clip-path="url(#A)" transform="matrix(.2646 0 0 .2646 -.005691 .000899)"><path d="M19.567.715C18.137.26 16.576 0 14.984 0 10.401 0 6.273 2.08 3.51 5.363l7.086 5.948z" fill="#1a73e8"/><path d="M3.51 5.363A15 15 0 0 0 0 14.983c0 2.828.553 5.103 1.495 7.15l9.101-10.823z" fill="#ea4335"/><path d="M15.016 9.263c3.185 0 5.753 2.568 5.753 5.753 0 1.398-.52 2.698-1.365 3.705l8.938-10.628c-1.82-3.51-4.973-6.175-8.776-7.378l-8.971 10.596c1.073-1.235 2.633-2.048 4.42-2.048z" fill="#4285f4"/><path d="M15.016 20.736c-3.185 0-5.753-2.568-5.753-5.753 0-1.398.488-2.698 1.333-3.673L1.495 22.134c1.56 3.445 4.16 6.24 6.826 9.718l11.083-13.163c-1.073 1.268-2.633 2.048-4.388 2.048z" fill="#fbca27"/><path d="M19.209 35.492c5.005-7.833 10.823-11.376 10.823-20.476a15.03 15.03 0 0 0-1.69-6.923L8.321 31.852c.845 1.105 1.723 2.373 2.568 3.673 3.055 4.713 2.21 7.508 4.16 7.508s1.105-2.828 4.16-7.541z" fill="#34a853"/></g></svg>