<svg xmlns="http://www.w3.org/2000/svg" width="22" height="22" viewBox="0 0 5.821 5.821" xmlns:v="https://vecta.io/nano"><path fill="#fbca27" d="M1.462.765h2.911v2.911H1.462z"/><path fill-rule="evenodd" d="M1.726.236c-.438 0-.794.355-.794.794v3.704c0 .438.355.794.794.794h2.381c.438 0 .794-.355.794-.794V1.03c0-.438-.355-.794-.794-.794zm-.265.794c0-.146.118-.265.265-.265h2.381c.146 0 .265.118.265.265v3.704c0 .146-.118.265-.265.265H1.726c-.146 0-.265-.118-.265-.265zm1.455 3.704c.219 0 .397-.178.397-.397s-.178-.397-.397-.397-.397.178-.397.397.178.397.397.397z" fill="#000"/></svg>