<svg xmlns="http://www.w3.org/2000/svg" width="30" height="30" viewBox="0 0 7.937 7.937" xmlns:v="https://vecta.io/nano"><defs><clipPath id="A"><path fill="#fff" transform="translate(.333)" d="M0 0h30v30H0z"/></clipPath></defs><g clip-path="url(#A)" transform="matrix(.2646 0 0 .2646 .176413 .076933)" fill="none"><path d="M14.016 2.227a.35.35 0 0 1 .635 0l3.392 7.303a1.65 1.65 0 0 0 1.298.943l7.994.969a.35.35 0 0 1 .196.604l-5.898 5.482a1.65 1.65 0 0 0-.496 1.526l1.549 7.902a.35.35 0 0 1-.514.373l-7.037-3.915a1.65 1.65 0 0 0-1.604 0L6.494 27.33a.35.35 0 0 1-.514-.373l1.549-7.902a1.65 1.65 0 0 0-.496-1.526l-5.898-5.483a.35.35 0 0 1 .196-.604l7.994-.969a1.65 1.65 0 0 0 1.298-.943z" stroke="#000" stroke-width="1.3"/><path d="M13.86 9.404a.5.5 0 0 1 .947 0l1.256 3.723a.5.5 0 0 0 .468.34l3.929.044a.5.5 0 0 1 .293.901L17.6 16.757a.5.5 0 0 0-.179.55l1.172 3.75a.5.5 0 0 1-.767.557l-3.204-2.273a.5.5 0 0 0-.579 0l-3.204 2.273a.5.5 0 0 1-.767-.557l1.172-3.75a.5.5 0 0 0-.179-.55l-3.152-2.345a.5.5 0 0 1 .293-.901l3.929-.044a.5.5 0 0 0 .468-.34z" fill="#f2ba00"/></g></svg>