<svg xmlns="http://www.w3.org/2000/svg" width="30" height="30" viewBox="0 0 7.937 7.937" xmlns:v="https://vecta.io/nano"><path d="M6.568.529H1.37c-.225 0-.407.183-.407.407v6.065c0 .225.183.407.407.407h5.197c.225 0 .407-.183.407-.407V.936c0-.225-.183-.407-.407-.407zM1.289.936c0-.045.037-.081.081-.081h5.197c.045 0 .081.037.081.081v1.412h-5.36zm1.569 6.147H1.37c-.045 0-.081-.037-.081-.081v-1.96h1.569zm0-2.368H1.289V2.674h1.569zm1.895 2.368H3.184V5.041h1.569zm0-2.368H3.184V2.674h1.569zm1.895 2.286c0 .045-.037.081-.081.081H5.08V2.674h1.569z" fill="#000"/><path fill="#fbca27" d="M1.323.794h5.292v1.588H1.323z"/><g fill="#000"><path d="M2.477 3.532h-.24v-.24c0-.09-.073-.163-.163-.163s-.163.073-.163.163v.24h-.24c-.09 0-.163.073-.163.163s.073.163.163.163h.24v.24c0 .09.073.163.163.163s.163-.073.163-.163v-.24h.24c.09 0 .163-.073.163-.163s-.073-.163-.163-.163zm1.919 2.103c-.064-.064-.167-.064-.23 0l-.624.624c-.064.064-.064.167 0 .23.032.032.074.048.115.048s.083-.016.115-.048l.624-.624c.064-.064.064-.167 0-.23zm-.739.255c.077 0 .139-.062.139-.139s-.062-.139-.139-.139-.139.062-.139.139.062.139.139.139zm.624.623c.077 0 .139-.062.139-.139s-.062-.139-.139-.139-.139.062-.139.139.062.139.139.139zm1.995-2.081h-.833c-.09 0-.163.073-.163.163s.073.163.163.163h.833c.09 0 .163-.073.163-.163s-.073-.163-.163-.163z"/><path d="M6.276 5h-.833c-.09 0-.163.073-.163.163s.073.163.163.163h.833c.09 0 .163-.073.163-.163S6.366 5 6.276 5z"/></g></svg>