<svg xmlns="http://www.w3.org/2000/svg" width="20" height="20" viewBox="0 0 5.292 5.292" xmlns:v="https://vecta.io/nano"><path d="M4.338 1.476c-.22-.048-.419-.165-.568-.333s-.242-.38-.263-.604V.442h-.761v3.014c0 .134-.042.264-.12.373s-.188.19-.315.232-.264.044-.392.004-.24-.119-.32-.226c-.072-.095-.116-.208-.127-.326s.011-.238.064-.344.135-.196.236-.258.218-.095.337-.095c.066 0 .131.009.194.029v-.772a1.51 1.51 0 0 0-.22-.011c-.271.007-.535.093-.758.248s-.396.371-.498.623-.128.527-.076.794.181.512.371.706a1.4 1.4 0 0 0 1.525.314 1.4 1.4 0 0 0 .87-1.291V1.912a1.8 1.8 0 0 0 1.052.335v-.75a1.07 1.07 0 0 1-.22-.022z"/></svg>