<svg xmlns="http://www.w3.org/2000/svg" width="36" height="15" viewBox="0 0 9.525 3.969" fill="#000" xmlns:v="https://vecta.io/nano"><path d="M8.03.358H5.628c.552.351.884.963.877 1.618.007.655-.325 1.267-.877 1.618h2.557c.034 0 .062-.028.062-.062V.42c0-.034-.028-.062-.062-.062zm-.031 2.863c0 .069-.056.124-.124.124h-.498c-.069 0-.124-.056-.124-.124s.056-.124.124-.124h.373v-.373c0-.069.056-.124.124-.124s.124.056.124.124zm0-1.991c0 .069-.056.124-.124.124s-.124-.056-.124-.124V.856h-.373c-.069 0-.124-.056-.124-.124s.056-.124.124-.124h.498c.069 0 .124.056.124.124zm-4.979.746A1.89 1.89 0 0 1 3.897.358H1.34c-.034 0-.062.028-.062.062v3.112c0 .034.028.062.062.062h2.557c-.552-.351-.884-.963-.877-1.618zm-.871 1.369h-.498c-.069 0-.124-.056-.124-.124v-.498c0-.069.056-.124.124-.124s.124.056.124.124v.373h.373c.069 0 .124.056.124.124s-.056.124-.124.124zm0-2.489h-.373v.373c0 .069-.056.124-.124.124s-.124-.056-.124-.124V.731c0-.069.056-.124.124-.124h.498c.069 0 .124.056.124.124s-.056.124-.124.124z"/><path fill-rule="evenodd" d="M4.844 3.611c.825 0 1.494-.724 1.494-1.618S5.669.375 4.844.375 3.35 1.099 3.35 1.993s.669 1.618 1.494 1.618zm.227-2.237c.086 0 .178.022.276.067l.065-.203c-.095-.052-.215-.077-.358-.077-.083 0-.156.011-.218.034a.4.4 0 0 0-.148.088c-.037.036-.067.082-.09.138a.74.74 0 0 0-.047.17c-.008.057-.012.123-.012.197v.053h-.193v.204h.196v.029a1.06 1.06 0 0 1-.006.121.43.43 0 0 1-.02.097l-.025.071a.22.22 0 0 1-.035.059l-.035.043c-.007.008-.02.02-.04.038l-.034.032v.197H5.44v-.216h-.715c.031-.043.052-.1.062-.169a1.74 1.74 0 0 0 .017-.269v-.033h.359V1.84h-.358v-.113c0-.127.021-.217.064-.271s.11-.082.202-.082z"/></svg>