<svg width="128" height="18" viewBox="0 0 128 18" fill="none" xmlns="http://www.w3.org/2000/svg">
<path d="M8.11694 1.17877C8.38279 0.419577 9.45645 0.419578 9.7223 1.17877L11.3374 5.79112C11.4545 6.1255 11.7666 6.35226 12.1208 6.3603L17.0065 6.47108C17.8107 6.48932 18.1425 7.51043 17.5026 7.99787L13.6151 10.9593C13.3333 11.1739 13.2141 11.5409 13.3159 11.8802L14.7203 16.561C14.9515 17.3315 14.0828 17.9626 13.4215 17.5046L9.40379 14.7225C9.11252 14.5208 8.72672 14.5208 8.43545 14.7225L4.41771 17.5046C3.75639 17.9626 2.88778 17.3315 3.11894 16.561L4.52334 11.8802C4.62516 11.5409 4.50594 11.1739 4.22411 10.9593L0.336607 7.99787C-0.303274 7.51043 0.0285047 6.48932 0.83269 6.47108L5.7184 6.3603C6.0726 6.35227 6.38471 6.1255 6.5018 5.79112L8.11694 1.17877Z" fill="#FBCA27"/>
<path d="M29.9563 1.17877C30.2221 0.419577 31.2958 0.419578 31.5617 1.17877L33.1768 5.79112C33.2939 6.1255 33.606 6.35226 33.9602 6.3603L38.8459 6.47108C39.6501 6.48932 39.9819 7.51043 39.342 7.99787L35.4545 10.9593C35.1727 11.1739 35.0534 11.5409 35.1552 11.8802L36.5597 16.561C36.7908 17.3315 35.9222 17.9626 35.2609 17.5046L31.2431 14.7225C30.9519 14.5208 30.5661 14.5208 30.2748 14.7225L26.2571 17.5046C25.5957 17.9626 24.7271 17.3315 24.9583 16.561L26.3627 11.8802C26.4645 11.5409 26.3453 11.1739 26.0635 10.9593L22.176 7.99787C21.5361 7.51043 21.8679 6.48932 22.672 6.47108L27.5578 6.3603C27.912 6.35227 28.2241 6.1255 28.3412 5.79112L29.9563 1.17877Z" fill="#FBCA27"/>
<path d="M51.7954 1.17877C52.0613 0.419577 53.1349 0.419578 53.4008 1.17877L55.0159 5.79112C55.133 6.1255 55.4451 6.35226 55.7993 6.3603L60.685 6.47108C61.4892 6.48932 61.821 7.51043 61.1811 7.99787L57.2936 10.9593C57.0118 11.1739 56.8925 11.5409 56.9944 11.8802L58.3988 16.561C58.6299 17.3315 57.7613 17.9626 57.1 17.5046L53.0823 14.7225C52.791 14.5208 52.4052 14.5208 52.1139 14.7225L48.0962 17.5046C47.4349 17.9626 46.5662 17.3315 46.7974 16.561L48.2018 11.8802C48.3036 11.5409 48.1844 11.1739 47.9026 10.9593L44.0151 7.99787C43.3752 7.51043 43.707 6.48932 44.5112 6.47108L49.3969 6.3603C49.7511 6.35227 50.0632 6.1255 50.1803 5.79112L51.7954 1.17877Z" fill="#FBCA27"/>
<path d="M73.6348 1.17877C73.9006 0.419577 74.9743 0.419578 75.2401 1.17877L76.8553 5.79112C76.9723 6.1255 77.2845 6.35226 77.6387 6.3603L82.5244 6.47108C83.3286 6.48932 83.6603 7.51043 83.0205 7.99787L79.1329 10.9593C78.8511 11.1739 78.7319 11.5409 78.8337 11.8802L80.2381 16.561C80.4693 17.3315 79.6007 17.9626 78.9394 17.5046L74.9216 14.7225C74.6303 14.5208 74.2445 14.5208 73.9533 14.7225L69.9355 17.5046C69.2742 17.9626 68.4056 17.3315 68.6368 16.561L70.0412 11.8802C70.143 11.5409 70.0238 11.1739 69.7419 10.9593L65.8544 7.99787C65.2145 7.51043 65.5463 6.48932 66.3505 6.47108L71.2362 6.3603C71.5904 6.35227 71.9025 6.1255 72.0196 5.79112L73.6348 1.17877Z" fill="#FBCA27"/>
<path d="M95.4739 1.17877C95.7397 0.419577 96.8134 0.419578 97.0792 1.17877L98.6944 5.79112C98.8115 6.1255 99.1236 6.35226 99.4778 6.3603L104.363 6.47108C105.168 6.48932 105.499 7.51043 104.86 7.99787L100.972 10.9593C100.69 11.1739 100.571 11.5409 100.673 11.8802L102.077 16.561C102.308 17.3315 101.44 17.9626 100.778 17.5046L96.7607 14.7225C96.4694 14.5208 96.0837 14.5208 95.7924 14.7225L91.7746 17.5046C91.1133 17.9626 90.2447 17.3315 90.4759 16.561L91.8803 11.8802C91.9821 11.5409 91.8629 11.1739 91.581 10.9593L87.6935 7.99787C87.0537 7.51043 87.3854 6.48932 88.1896 6.47108L93.0753 6.3603C93.4295 6.35227 93.7416 6.1255 93.8587 5.79112L95.4739 1.17877Z" fill="#FBCA27"/>
<path d="M117.313 1.17877C117.579 0.419577 118.653 0.419578 118.919 1.17877L120.534 5.79112C120.651 6.1255 120.963 6.35226 121.317 6.3603L126.203 6.47108C127.007 6.48932 127.339 7.51043 126.699 7.99787L122.811 10.9593C122.53 11.1739 122.41 11.5409 122.512 11.8802L123.917 16.561C124.148 17.3315 123.279 17.9626 122.618 17.5046L118.6 14.7225C118.309 14.5208 117.923 14.5208 117.632 14.7225L113.614 17.5046C112.953 17.9626 112.084 17.3315 112.315 16.561L113.72 11.8802C113.821 11.5409 113.702 11.1739 113.42 10.9593L109.533 7.99787C108.893 7.51043 109.225 6.48932 110.029 6.47108L114.915 6.3603C115.269 6.35227 115.581 6.1255 115.698 5.79112L117.313 1.17877Z" fill="#FBCA27"/>
</svg>
