<svg xmlns="http://www.w3.org/2000/svg" width="30" height="30" viewBox="0 0 7.937 7.937" xmlns:v="https://vecta.io/nano"><g transform="matrix(.2646 0 0 .2646 -.151061 .003784)"><path d="M19.04 2h-6.937c-1.104 0-2.162.433-2.942 1.205a4.09 4.09 0 0 0-1.219 2.908v4.989l-.044.053c-1.305 1.46-2.155 3.261-2.449 5.187s-.02 3.895.791 5.671 2.122 3.282 3.777 4.339 3.584 1.619 5.555 1.619 3.9-.562 5.555-1.619 2.967-2.564 3.777-4.339a10.01 10.01 0 0 0 .791-5.671 10.07 10.07 0 0 0-2.449-5.187v-.053-4.989a4.07 4.07 0 0 0-.321-1.584 4.11 4.11 0 0 0-.913-1.34c-.391-.382-.855-.684-1.365-.889S19.59 1.994 19.04 2zM9.361 6.113c.002-.729.297-1.427.819-1.941s1.229-.803 1.967-.803h6.938a2.8 2.8 0 0 1 1.967.803c.522.514.817 1.213.819 1.941v3.709l-.284-.202a10.3 10.3 0 0 0-11.941 0l-.284.202zm15.081 11.724c0 1.734-.52 3.43-1.495 4.872a8.85 8.85 0 0 1-3.981 3.23c-1.621.664-3.405.837-5.126.499s-3.302-1.173-4.542-2.4-2.086-2.789-2.428-4.49-.167-3.464.505-5.066a8.79 8.79 0 0 1 3.267-3.935c1.459-.963 3.174-1.478 4.929-1.478a8.96 8.96 0 0 1 3.395.667 8.88 8.88 0 0 1 2.878 1.901 8.76 8.76 0 0 1 1.923 2.845 8.68 8.68 0 0 1 .675 3.356z" fill="#000"/><circle cx="15.421" cy="18.021" r="7" fill="#f2ba00"/><path d="M16.245 21.702c-1.177-.002-2.305-.464-3.136-1.285s-1.3-1.934-1.302-3.094a.55.55 0 0 0-.041-.215c-.028-.068-.069-.13-.122-.183a.56.56 0 0 0-.184-.122.57.57 0 0 0-.217-.043c-.151 0-.296.059-.403.165a.56.56 0 0 0-.167.398c0 1.459.587 2.858 1.632 3.89a5.62 5.62 0 0 0 3.941 1.615c.075 0 .149-.015.218-.043a.57.57 0 0 0 .185-.122c.053-.052.095-.114.124-.183s.043-.141.043-.215-.015-.147-.043-.215-.071-.13-.124-.183a.57.57 0 0 0-.185-.122c-.069-.028-.143-.043-.218-.043z" fill="#000"/></g></svg>