<svg width="20" height="26" viewBox="0 0 20 26" fill="none" xmlns="http://www.w3.org/2000/svg">
<path fill-rule="evenodd" clip-rule="evenodd" d="M3.5874 0C1.93055 0 0.587402 1.34314 0.587402 3V22.087C0.587402 23.7438 1.93055 25.087 3.5874 25.087H16.5481C18.2049 25.087 19.5481 23.7438 19.5481 22.087V3C19.5481 1.34315 18.205 0 16.5481 0H3.5874ZM2.5874 3C2.5874 2.44771 3.03512 2 3.5874 2H16.5481C17.1004 2 17.5481 2.44772 17.5481 3V22.087C17.5481 22.6392 17.1004 23.087 16.5481 23.087H3.5874C3.03512 23.087 2.5874 22.6392 2.5874 22.087V3ZM10.0677 20.2391C11.1485 20.2391 12.0247 19.3778 12.0247 18.3152C12.0247 17.2527 11.1485 16.3913 10.0677 16.3913C8.98688 16.3913 8.11072 17.2527 8.11072 18.3152C8.11072 19.3778 8.98688 20.2391 10.0677 20.2391Z" fill="black"/>
</svg>
