<svg xmlns="http://www.w3.org/2000/svg" width="36" height="15" viewBox="0 0 9.525 3.969" xmlns:v="https://vecta.io/nano"><path d="M5.593.492H3.932v2.986h1.662z" fill="#4b3d0c"/><path d="M4.037 1.985c0-.288.065-.571.191-.83s.309-.485.535-.663A1.9 1.9 0 0 0 2.759.277 1.9 1.9 0 0 0 1.69 1.985a1.9 1.9 0 0 0 1.069 1.708 1.9 1.9 0 0 0 2.004-.215c-.226-.177-.409-.404-.535-.663s-.191-.542-.191-.83z" fill="#000"/><path d="M7.836 1.985a1.9 1.9 0 0 1-1.069 1.708 1.9 1.9 0 0 1-2.004-.215 1.9 1.9 0 0 0 .726-1.493A1.9 1.9 0 0 0 4.763.492 1.9 1.9 0 0 1 6.766.277a1.9 1.9 0 0 1 1.069 1.708z" fill="#806714"/><path d="M7.654 3.161V3.1h.025v-.013h-.063V3.1h.027v.061zm.122 0v-.074h-.019l-.022.053-.022-.053h-.017v.074h.014v-.055l.021.048h.014l.021-.048v.056z" fill="#000"/></svg>