<svg width="288" height="382" viewBox="0 0 288 382" fill="none" xmlns="http://www.w3.org/2000/svg">
<g clip-path="url(#clip0_3603_35412)">
<path d="M133.388 140.605C135.222 127.459 133.055 113.759 126.388 102.167C124.222 98.3952 121.666 94.9009 118.666 91.7948C115.277 88.245 111.444 85.1389 107.777 81.8665C117.888 90.7964 124.222 103.387 125.999 116.699C127.833 130.066 125.166 144.154 118.944 156.135C112.777 168.06 103.666 178.21 92.2771 185.365C80.9993 192.465 67.8327 196.403 54.4438 196.07C42.2771 195.682 30.3327 191.633 20.7771 184.034C20.0549 183.479 19.3882 182.869 18.666 182.259C23.4993 186.53 28.166 191.078 33.666 194.462C38.7216 197.568 44.3327 199.786 50.1105 201.173C62.9438 204.168 76.5549 202.671 88.666 197.679C100.777 192.687 111.444 184.367 119.333 173.939C126.777 164.122 131.722 152.641 133.388 140.605Z" fill="black"/>
<path d="M76.5556 68.3328C110.722 71.938 132.5 103.332 125.222 138.552C117.889 173.717 84.2778 199.342 50.0556 195.737C15.8889 192.132 -5.88888 160.738 1.38889 125.518C8.72223 90.3526 42.3889 64.7275 76.5556 68.3328Z" fill="#F2BA00"/>
<path opacity="0.5" d="M55.2778 192.742C24.7778 189.525 2.55561 163.012 9.4445 130.066C16.2778 97.1748 47.7778 73.2137 79.7223 76.5416C106.556 79.3703 122.278 101.945 123.444 126.904C124.778 97.2857 104.778 72.4372 75.0556 69.2756C41.9445 65.8367 9.33339 90.6299 2.27783 124.686C-4.83328 158.742 16.2778 189.192 49.3889 192.687C52.3889 193.019 55.3889 193.075 58.3889 192.964C57.3334 192.908 56.2778 192.797 55.2778 192.742Z" fill="black"/>
<path d="M71.6103 75.1552C73.5548 75.1552 75.4992 75.2661 77.3881 75.4325C91.6659 76.9301 103.999 83.9187 112.166 95.0673C116.388 100.891 119.333 107.492 120.833 114.758C122.388 122.356 122.333 130.232 120.666 138.275C117.666 152.752 109.555 166.119 97.8326 175.881C86.2214 185.532 72.1103 190.856 58.0548 190.856C56.1103 190.856 54.1659 190.745 52.277 190.579C37.9992 189.081 25.6659 182.093 17.4992 170.944C13.277 165.12 10.3325 158.52 8.83255 151.254C7.27699 143.655 7.33255 135.779 8.99922 127.737C11.9992 113.26 20.1103 99.8928 31.8326 90.1309C43.4437 80.4799 57.5548 75.1552 71.6103 75.1552ZM71.6103 69.6641C40.0548 69.7195 10.3881 94.0135 3.61033 126.627C-3.6119 161.404 17.9437 189.747 51.7214 193.297C53.8326 193.519 55.9437 193.63 58.0548 193.63C89.6103 193.63 116.721 170.279 123.499 137.665C130.721 102.888 111.721 73.6021 77.9437 70.0523C75.8326 69.775 73.7214 69.6641 71.6103 69.6641Z" fill="black"/>
<path d="M70.1663 73.5475C72.1107 73.5475 74.0552 73.6585 75.9996 73.8249C90.4441 75.3224 102.889 82.3666 111.166 93.6815C115.444 99.5609 118.389 106.272 119.944 113.594C121.555 121.248 121.5 129.235 119.777 137.388C116.722 152.031 108.555 165.509 96.6663 175.382C84.9441 185.144 70.6663 190.524 56.4996 190.524C54.5552 190.524 52.6107 190.414 50.6663 190.247C36.2774 188.75 23.7774 181.705 15.4996 170.39C11.2218 164.511 8.27741 157.8 6.72185 150.478C5.11074 142.824 5.16629 134.837 6.88852 126.684C9.88852 112.041 18.1107 98.507 29.9441 88.6896C41.6663 78.9277 55.9441 73.5475 70.1663 73.5475ZM70.1663 68.001C38.2774 68.001 8.2774 92.5722 1.38852 125.519C-5.94482 160.684 15.833 192.133 50.0552 195.738C52.2219 195.96 54.333 196.071 56.4996 196.071C88.3885 196.071 118.389 171.5 125.222 138.553C132.555 103.388 110.777 71.939 76.5552 68.3338C74.4441 68.1119 72.2774 68.001 70.1663 68.001Z" fill="url(#paint0_linear_3603_35412)"/>
<path opacity="0.3" d="M57.6923 100.018C64.9918 97.2069 71.3649 98.6742 76.8116 104.42C77.2385 104.887 77.2711 105.68 76.8288 106.157L71.3465 111.901C71.2236 112.026 71.0259 112.127 70.8776 112.204C70.5557 112.306 70.2326 112.285 70.0059 111.965C67.4362 108.297 64.2459 107.191 60.51 108.672C58.2086 109.541 56.6596 111.146 55.7618 113.291C54.8892 115.484 54.8921 118.288 55.8185 121.553C56.3855 123.631 57.5035 126.175 59.0206 128.887C59.3751 129.578 60.1517 130.24 60.8195 129.959L69.3065 126.663C69.4548 126.587 69.5537 126.536 69.7273 126.51C70.148 126.356 70.5446 126.277 70.6484 126.723L72.3227 132.783C72.5278 133.426 72.2447 134.943 71.6757 135.173L63.1887 138.469C63.0404 138.545 62.8174 138.597 62.6691 138.673C62.3472 138.776 62.1748 138.927 62.2533 139.323C63.4909 143.925 63.8688 146.973 63.7197 149.481C63.5694 151.864 62.627 154.53 61.0204 157.848C60.8505 158.247 61.0735 158.195 61.4448 158.067L71.4906 154.158C77.2808 151.935 80.9637 150.107 82.357 147.833C83.5792 145.834 84.1817 143.966 83.9076 141.364C83.8786 140.942 84.1233 140.567 84.4452 140.465C84.544 140.414 84.6682 140.413 84.7924 140.411L93.2741 141.607C93.8709 141.675 94.2724 142.092 94.2291 142.738C93.9656 146.239 93.25 149.225 92.1087 151.868C90.871 154.81 89.2027 156.913 87.2089 158.747C85.2151 160.581 82.147 161.781 78.188 163.314L46.7885 175.502C46.4666 175.604 46.0471 175.882 45.6264 176.036C45.2551 176.164 44.9573 176.192 44.8801 175.92L42.5616 167.509C42.3818 166.915 43.0689 166.064 43.6379 165.834C46.6554 164.535 49.2496 163.141 50.6781 161.909C52.2295 160.552 53.3287 158.679 54.0481 156.065C54.718 153.477 54.7936 151.069 54.1241 148.67C53.8153 147.581 53.2532 145.999 52.2847 143.504C52.0302 142.886 51.5094 142.967 50.9404 143.196L46.2641 145.035C45.6951 145.265 44.9631 144.082 44.758 143.439L43.0837 137.378C42.9546 136.883 43.1523 136.782 43.4983 136.604C43.5972 136.554 43.7708 136.527 43.8696 136.476L47.6309 135.045C48.1999 134.815 48.3131 133.697 48.0839 133.129C46.914 130.363 46.0203 127.891 45.6077 126.357C44.0612 120.667 44.3811 115.328 46.6179 110.44C48.78 105.527 52.5458 102.036 57.6923 100.018Z" fill="black"/>
<path d="M56.6076 98.2639C63.8578 95.4781 69.577 94.8036 74.9983 100.5C75.4252 100.967 76.037 103.878 75.5693 104.305L70.1365 110.024C70.0135 110.149 69.8158 110.251 69.6675 110.327C69.3457 110.43 69.0225 110.408 68.8212 110.138C66.2768 106.518 63.1359 105.387 59.4 106.868C57.148 107.712 55.5991 109.318 54.7012 111.462C53.8034 113.606 53.8556 116.384 54.7073 119.626C55.249 121.654 56.367 124.198 57.8841 126.91C58.2133 127.552 59.0151 128.263 59.683 127.982L68.1206 124.712C68.2689 124.636 68.3677 124.585 68.5413 124.558C68.962 124.404 68.0168 121.554 68.1206 122L71.1115 130.783C71.2912 131.376 71.0334 132.942 70.4644 133.172L62.0268 136.443C61.8786 136.519 61.6555 136.571 61.5073 136.647C61.1854 136.75 61.013 136.901 61.0914 137.297C62.3291 141.898 62.6816 144.897 62.5072 147.356C62.3569 149.739 61.3892 152.356 59.832 155.649C59.6621 156.048 59.8851 155.996 60.2564 155.867L70.2528 151.984C75.9936 149.786 79.6017 147.934 81.0203 145.71C82.2425 143.711 82.8209 141.918 82.5468 139.315C82.5178 138.894 82.7625 138.519 83.0844 138.416C83.1833 138.365 83.3074 138.364 83.4316 138.362L90.7226 137.297C91.3193 137.364 92.8622 140.068 92.8189 140.714C92.5554 144.216 91.8639 147.127 90.7226 149.77C89.509 152.637 87.8166 154.815 85.8469 156.574C83.9025 158.382 80.8344 159.583 76.9249 161.091L45.7725 173.151C45.4506 173.254 45.0311 173.532 44.6104 173.685C44.2391 173.813 43.9413 173.842 43.8641 173.57L41.5709 165.208C41.3912 164.614 42.0782 163.763 42.5978 163.559C45.6153 162.259 48.1601 160.891 49.5645 159.734C51.0664 158.402 52.2151 156.503 52.885 153.915C53.5549 151.327 53.6064 148.994 52.9369 146.594C52.6534 145.555 52.0913 143.973 51.1228 141.478C50.8684 140.86 50.3476 140.94 49.7785 141.17L45.1517 142.984C44.5827 143.213 43.8507 142.03 43.6709 141.437L42.0219 135.425C41.8928 134.93 42.0906 134.829 42.4365 134.651C42.5354 134.601 42.6596 134.599 42.8078 134.523L46.5691 133.092C47.1382 132.862 47.2766 131.793 46.9727 131.201C45.8028 128.435 44.9344 126.013 44.5219 124.479C42.9513 118.864 43.2964 113.574 45.5333 108.686C47.7448 103.748 51.4612 100.282 56.6076 98.2639Z" fill="black"/>
<path d="M55.6067 95.2641C62.8568 92.4783 69.1551 93.9217 74.5765 99.6181C75.0033 100.085 75.036 100.878 74.5683 101.306L69.1355 107.024C69.0125 107.149 68.8148 107.251 68.6666 107.327C68.3447 107.43 68.0216 107.409 67.8202 107.138C65.2758 103.519 62.135 102.387 58.399 103.868C56.147 104.712 54.5981 106.318 53.7002 108.462C52.8024 110.606 52.8547 113.385 53.7063 116.626C54.248 118.655 55.366 121.198 56.8831 123.911C57.2123 124.552 58.0142 125.263 58.682 124.982L67.1196 121.712C67.2679 121.636 67.3667 121.585 67.5403 121.558C67.9611 121.405 68.3577 121.326 68.4615 121.771L70.1105 127.783C70.2902 128.376 70.0325 129.943 69.4634 130.172L61.0259 133.443C60.8776 133.519 60.6546 133.571 60.5063 133.647C60.1844 133.75 60.012 133.901 60.0904 134.297C61.3281 138.899 61.6806 141.897 61.5062 144.356C61.3559 146.74 60.3882 149.356 58.831 152.649C58.6611 153.048 58.8841 152.996 59.2555 152.868L69.2518 148.984C74.9926 146.786 78.6007 144.934 80.0194 142.71C81.2415 140.711 81.82 138.918 81.5459 136.315C81.5169 135.894 81.7615 135.519 82.0834 135.416C82.1823 135.365 82.3065 135.364 82.4306 135.363L90.8629 136.583C91.4597 136.651 91.8612 137.069 91.8179 137.714C91.5544 141.216 90.8629 144.127 89.7216 146.77C88.508 149.637 86.8156 151.815 84.8459 153.574C82.9016 155.383 79.8335 156.583 75.9239 158.091L44.7715 170.151C44.4496 170.254 44.0301 170.532 43.6094 170.685C43.2381 170.814 42.9403 170.842 42.8631 170.57L40.5699 162.208C40.3902 161.615 41.0772 160.763 41.5968 160.559C44.6143 159.26 47.1591 157.891 48.5635 156.734C50.0655 155.402 51.2141 153.503 51.884 150.915C52.5539 148.327 52.6054 145.994 51.9359 143.594C51.6524 142.555 51.0904 140.973 50.1219 138.478C49.8674 137.86 49.3466 137.941 48.7776 138.17L44.1507 139.984C43.5817 140.214 42.8497 139.031 42.67 138.437L41.0209 132.426C40.8919 131.931 41.0896 131.829 41.4356 131.652C41.5344 131.601 41.6586 131.6 41.8069 131.523L45.5682 130.092C46.1372 129.862 46.2756 128.794 45.9717 128.201C44.8019 125.435 43.9334 123.013 43.5209 121.479C41.9503 115.864 42.2955 110.575 44.5323 105.686C46.7438 100.748 50.4602 97.282 55.6067 95.2641Z" fill="#FFE258"/>
</g>
<g clip-path="url(#clip1_3603_35412)">
<path d="M251.524 54.1132C252.919 44.3157 251.27 34.1049 246.196 25.4649C244.547 22.6538 242.602 20.0494 240.319 17.7344C237.739 15.0886 234.822 12.7736 232.031 10.3346C239.727 16.9903 244.547 26.3744 245.9 36.2959C247.296 46.2587 245.266 56.7589 240.53 65.6883C235.836 74.5763 228.902 82.1414 220.233 87.4742C211.65 92.7657 201.628 95.7008 191.438 95.4528C182.177 95.1634 173.086 92.1456 165.813 86.4821C165.263 86.0687 164.756 85.614 164.206 85.1592C167.885 88.3424 171.437 91.7322 175.623 94.2539C179.471 96.569 183.742 98.2225 188.139 99.256C197.907 101.488 208.267 100.372 217.485 96.6516C226.703 92.9311 234.822 86.7301 240.826 78.9583C246.492 71.6412 250.255 63.0839 251.524 54.1132Z" fill="black"/>
<path d="M208.268 0.247848C234.273 2.93492 250.849 26.3331 245.31 52.5838C239.728 78.7931 214.146 97.8919 188.099 95.2049C162.093 92.5178 145.518 69.1196 151.057 42.869C156.639 16.6597 182.263 -2.43922 208.268 0.247848Z" fill="#F2BA00"/>
<path opacity="0.5" d="M192.073 92.9725C168.859 90.5748 151.945 70.8145 157.188 46.2588C162.389 21.7444 186.364 3.88569 210.678 6.36607C231.101 8.47438 243.068 25.2996 243.956 43.9024C244.971 21.8271 229.748 3.30694 207.126 0.95058C181.924 -1.61247 157.103 16.8663 151.733 42.2488C146.321 67.6313 162.389 90.3268 187.591 92.9312C189.874 93.1792 192.157 93.2205 194.441 93.1379C193.637 93.0965 192.834 93.0138 192.073 92.9725Z" fill="black"/>
<path d="M204.504 5.33261C205.984 5.33261 207.464 5.41529 208.901 5.53931C219.768 6.65547 229.156 11.8643 235.371 20.1735C238.585 24.5142 240.826 29.4336 241.968 34.8491C243.152 40.5126 243.109 46.3828 241.841 52.377C239.558 63.1667 233.384 73.1295 224.462 80.4053C215.625 87.5984 204.884 91.567 194.186 91.567C192.706 91.567 191.226 91.4843 189.789 91.3603C178.921 90.2441 169.534 85.0353 163.318 76.7261C160.105 72.3854 157.864 67.466 156.722 62.0505C155.538 56.387 155.58 50.5168 156.849 44.5225C159.132 33.7329 165.306 23.7701 174.228 16.4943C183.065 9.30121 193.806 5.33261 204.504 5.33261ZM204.504 1.23999C180.486 1.28133 157.906 19.3881 152.747 43.6957C147.25 69.6156 163.657 90.7402 189.366 93.3859C190.973 93.5513 192.579 93.6339 194.186 93.6339C218.204 93.6339 238.839 76.23 243.997 51.9223C249.494 26.0024 235.033 4.1751 209.324 1.52937C207.717 1.32267 206.11 1.23999 204.504 1.23999Z" fill="black"/>
<path d="M203.405 4.13457C204.885 4.13457 206.365 4.21725 207.845 4.34127C218.839 5.45743 228.311 10.7076 234.611 19.1408C237.867 23.5228 240.108 28.5249 241.292 33.9817C242.518 39.6866 242.476 45.6395 241.165 51.7164C238.84 62.6301 232.624 72.6756 223.575 80.034C214.653 87.3098 203.786 91.3197 193.003 91.3197C191.523 91.3197 190.043 91.2371 188.563 91.113C177.611 89.9969 168.097 84.7467 161.797 76.3135C158.541 71.9315 156.3 66.9294 155.116 61.4726C153.89 55.7677 153.932 49.8148 155.243 43.7379C157.526 32.8242 163.784 22.7374 172.791 15.4203C181.713 8.14451 192.58 4.13457 203.405 4.13457ZM203.405 0.000610352C179.134 0.000610352 156.3 18.314 151.057 42.8698C145.475 69.079 162.051 92.5186 188.098 95.2057C189.747 95.371 191.354 95.4537 193.003 95.4537C217.274 95.4537 240.108 77.1403 245.309 52.5846C250.891 26.3753 234.315 2.93572 208.268 0.248648C206.661 0.0832895 205.012 0.000610352 203.405 0.000610352Z" fill="url(#paint1_linear_3603_35412)"/>
<path opacity="0.3" d="M221.443 30.2864C226.368 33.6747 228.211 38.335 226.973 44.2673C226.866 44.7394 226.383 45.1044 225.893 45.0319L219.92 44.0637C219.788 44.0405 219.639 43.9597 219.527 43.8991C219.323 43.7406 219.196 43.5274 219.298 43.2453C220.482 40.0308 219.792 37.5368 217.245 35.8209C215.703 34.7453 214.026 34.4642 212.295 34.8279C210.543 35.229 208.788 36.4478 207.145 38.4497C206.089 39.7096 204.981 41.5192 203.939 43.6543C203.661 44.178 203.583 44.9552 204.048 45.2551L209.791 49.1828C209.903 49.2434 209.977 49.2838 210.069 49.3817C210.348 49.5807 210.569 49.7969 210.335 50.0557L207.265 53.7432C206.951 54.1517 205.879 54.6313 205.488 54.3717L199.746 50.4441C199.634 50.3835 199.504 50.2653 199.393 50.2047C199.189 50.0462 199.019 50.0028 198.805 50.2242C196.46 53.0028 194.715 54.5641 193.08 55.5584C191.522 56.4981 189.444 57.0601 186.669 57.486C186.346 57.5519 186.475 57.67 186.716 57.8488L193.518 62.4945C197.421 65.185 200.162 66.7168 202.189 66.6097C203.971 66.5138 205.402 66.0835 206.913 64.781C207.164 64.5797 207.505 64.5715 207.709 64.7301C207.784 64.7704 207.838 64.8482 207.893 64.926L210.82 70.7996C211.037 71.2058 210.949 71.6404 210.526 71.8933C208.219 73.2468 206.039 74.0908 203.889 74.5173C201.51 75.0128 199.47 74.8723 197.458 74.4094C195.445 73.9465 193.363 72.5306 190.687 70.6965L169.446 56.1626C169.242 56.004 168.886 55.8597 168.607 55.6607C168.366 55.4819 168.219 55.3061 168.356 55.1393L172.619 50.0252C172.913 49.6541 173.744 49.7184 174.134 49.9779C176.256 51.319 178.253 52.3519 179.644 52.7191C181.166 53.1095 182.816 52.9904 184.764 52.3103C186.675 51.6099 188.216 50.6126 189.429 49.1485C189.976 48.4812 190.723 47.4399 191.866 45.7454C192.143 45.3167 191.867 45.0227 191.476 44.7632L188.298 42.609C187.907 42.3495 188.331 41.374 188.645 40.9655L191.715 37.278C191.969 36.9818 192.118 37.0625 192.379 37.2039C192.454 37.2443 192.546 37.3423 192.62 37.3827L195.147 39.1359C195.537 39.3955 196.287 38.9817 196.543 38.5905C197.768 36.6514 198.929 35.0145 199.71 34.0883C202.604 30.6425 206.086 28.5274 210.117 27.8179C214.13 27.0508 217.949 27.913 221.443 30.2864Z" fill="black"/>
<path d="M219.028 28.8383C223.915 32.2064 225.741 36.8091 224.524 42.704C224.417 43.1761 223.934 43.5412 223.463 43.4312L217.528 42.4832C217.396 42.46 217.246 42.3792 217.135 42.3186C216.931 42.1601 213.859 40.511 213.942 40.2664C215.105 37.0892 217.397 36.0513 214.85 34.3354C213.346 33.28 211.669 32.9989 209.937 33.3626C208.205 33.7263 206.488 34.9652 204.827 36.9096C203.791 38.132 202.683 39.9417 201.642 42.0768C201.383 42.563 201.285 43.3777 201.75 43.6776L207.456 47.5851C207.567 47.6457 207.642 47.686 207.734 47.784C208.013 47.983 208.234 48.1992 208 48.458L204.95 52.1081C204.656 52.4792 203.564 52.9962 203.173 52.7366L197.468 48.8292C197.356 48.7686 197.227 48.6504 197.115 48.5898C196.911 48.4313 196.742 48.3879 196.527 48.6093C194.182 51.3878 192.457 52.9118 190.842 53.8687C189.284 54.8084 187.226 55.333 184.489 55.7791C184.165 55.8449 184.296 56.7292 184.537 56.908L191.302 61.5335C195.166 64.2038 197.889 64.9119 199.897 64.8421C201.678 64.7462 200.267 62.8526 201.778 61.5501C202.03 61.3488 205.155 62.8212 205.359 62.9797C205.434 63.0201 205.488 63.0979 205.543 63.1757L208.433 69.0291C208.649 69.4353 208.562 69.8699 208.139 70.1228C205.832 71.4763 203.709 72.3031 201.559 72.7296C199.237 73.2078 197.14 73.0846 195.185 72.6045C193.21 72.1618 191.128 70.7459 188.489 68.932L167.434 54.499C167.23 54.3404 166.874 54.1961 166.596 53.9971C166.355 53.8184 166.208 53.6426 166.345 53.4758L170.587 48.399C170.881 48.0279 171.712 48.0922 172.065 48.3316C174.187 49.6727 176.147 50.6854 177.48 51.0698C178.965 51.44 180.652 51.3411 182.563 50.6407C184.475 49.9404 185.958 48.9603 187.171 47.4962C187.698 46.8663 188.445 45.8249 189.589 44.1305C189.865 43.7018 189.589 43.4078 189.198 43.1483L186.057 41.0143C185.667 40.7548 186.09 39.7792 186.384 39.4082L189.434 35.7581C189.688 35.4619 189.837 35.5426 190.099 35.684C190.173 35.7244 190.228 35.8022 190.34 35.8628L192.867 37.616C193.257 37.8756 193.986 37.4992 194.225 37.0504C195.451 35.1113 196.591 33.5118 197.373 32.5856C200.209 29.157 203.671 27.0793 207.702 26.3698C211.753 25.6229 215.534 26.465 219.028 28.8383Z" fill="black"/>
<path d="M215.908 26.9015C220.795 30.2697 222.621 34.8724 221.403 40.7673C221.296 41.2393 220.813 41.6044 220.343 41.4945L214.407 40.5464C214.275 40.5232 214.126 40.4424 214.014 40.3819C213.81 40.2233 213.683 40.0101 213.766 39.7655C214.929 36.5883 214.276 34.1145 211.73 32.3987C210.225 31.3433 208.548 31.0621 206.816 31.4258C205.084 31.7895 203.367 33.0285 201.706 34.9728C200.671 36.1953 199.562 38.0049 198.521 40.14C198.262 40.6263 198.165 41.4409 198.63 41.7409L204.335 45.6483C204.447 45.7089 204.521 45.7493 204.613 45.8473C204.892 46.0462 205.113 46.2624 204.879 46.5213L201.829 50.1713C201.535 50.5424 200.443 51.0594 200.052 50.7999L194.347 46.8924C194.235 46.8318 194.106 46.7137 193.994 46.6531C193.79 46.4945 193.621 46.4511 193.407 46.6726C191.062 49.4511 189.336 50.975 187.721 51.9319C186.163 52.8717 184.105 53.3962 181.368 53.8423C181.045 53.9081 181.174 54.0263 181.415 54.2051L188.18 58.8306C192.045 61.5009 194.768 62.9751 196.776 62.9054C198.558 62.8095 199.931 62.3964 201.442 61.0939C201.694 60.8927 202.034 60.8844 202.238 61.043C202.313 61.0834 202.368 61.1612 202.422 61.239L205.313 67.0924C205.529 67.4985 205.441 67.9332 205.018 68.1861C202.711 69.5395 200.588 70.3663 198.438 70.7929C196.117 71.2711 194.019 71.1478 192.064 70.6677C190.089 70.225 188.007 68.8091 185.369 66.9952L164.313 52.5623C164.109 52.4037 163.754 52.2593 163.475 52.0604C163.234 51.8816 163.087 51.7058 163.224 51.539L167.467 46.4623C167.761 46.0912 168.592 46.1555 168.945 46.3948C171.066 47.7359 173.026 48.7486 174.36 49.133C175.845 49.5032 177.532 49.4043 179.443 48.704C181.354 48.0036 182.838 47.0235 184.05 45.5595C184.578 44.9295 185.325 43.8882 186.468 42.1937C186.744 41.765 186.468 41.4711 186.078 41.2115L182.937 39.0775C182.546 38.818 182.97 37.8425 183.264 37.4714L186.314 33.8213C186.568 33.5251 186.717 33.6059 186.978 33.7472C187.053 33.7876 187.107 33.8654 187.219 33.926L189.746 35.6793C190.136 35.9388 190.866 35.5625 191.105 35.1136C192.33 33.1745 193.47 31.5751 194.252 30.6489C197.088 27.2203 200.55 25.1426 204.581 24.4331C208.632 23.6862 212.414 24.5282 215.908 26.9015Z" fill="#FFE258"/>
<path d="M167.809 23.0638L179.977 21.1768L167.729 19.9286L165.537 17.5502L163.596 5.17444L162.378 17.6544L160.19 19.9361L147.953 21.6675L160.27 23.0713L162.55 25.224L164.403 37.8254L165.621 25.3454L167.809 23.0638Z" fill="white"/>
</g>
<g clip-path="url(#clip2_3603_35412)">
<path d="M286.1 265.9C289.4 242.2 285.5 217.5 273.5 196.6C269.6 189.8 265 183.5 259.6 177.9C253.5 171.5 246.6 165.9 240 160C258.2 176.1 269.6 198.8 272.8 222.8C276.1 246.9 271.3 272.3 260.1 293.9C249 315.4 232.6 333.7 212.1 346.6C191.8 359.4 168.1 366.5 144 365.9C122.1 365.2 100.6 357.9 83.3999 344.2C82.0999 343.2 80.8999 342.1 79.5999 341C88.2999 348.7 96.6999 356.9 106.6 363C115.7 368.6 125.8 372.6 136.2 375.1C159.3 380.5 183.8 377.8 205.6 368.8C227.4 359.8 246.6 344.8 260.8 326C274.2 308.3 283.1 287.6 286.1 265.9Z" fill="black"/>
<path d="M183.8 135.6C245.3 142.1 284.5 198.7 271.4 262.2C258.2 325.6 197.7 371.8 136.1 365.3C74.5999 358.8 35.3999 302.2 48.4999 238.7C61.6999 175.3 122.3 129.1 183.8 135.6Z" fill="#F2BA00"/>
<path opacity="0.5" d="M145.5 359.9C90.5998 354.1 50.5998 306.3 62.9998 246.9C75.2999 187.6 132 144.4 189.5 150.4C237.8 155.5 266.1 196.2 268.2 241.2C270.6 187.8 234.6 143 181.1 137.3C121.5 131.1 62.7998 175.8 50.0998 237.2C37.2998 298.6 75.2999 353.5 134.9 359.8C140.3 360.4 145.7 360.5 151.1 360.3C149.2 360.2 147.3 360 145.5 359.9Z" fill="black"/>
<path d="M174.9 147.9C178.4 147.9 181.9 148.1 185.3 148.4C211 151.1 233.2 163.7 247.9 183.8C255.5 194.3 260.8 206.2 263.5 219.3C266.3 233 266.2 247.2 263.2 261.7C257.8 287.8 243.2 311.9 222.1 329.5C201.2 346.9 175.8 356.5 150.5 356.5C147 356.5 143.5 356.3 140.1 356C114.4 353.3 92.2 340.7 77.5 320.6C69.9 310.1 64.6 298.2 61.9 285.1C59.1 271.4 59.2 257.2 62.2 242.7C67.6 216.6 82.2 192.5 103.3 174.9C124.2 157.5 149.6 147.9 174.9 147.9ZM174.9 138C118.1 138.1 64.7 181.9 52.5 240.7C39.5 303.4 78.3 354.5 139.1 360.9C142.9 361.3 146.7 361.5 150.5 361.5C207.3 361.5 256.1 319.4 268.3 260.6C281.3 197.9 247.1 145.1 186.3 138.7C182.5 138.2 178.7 138 174.9 138Z" fill="black"/>
<path d="M172.3 145C175.8 145 179.3 145.2 182.8 145.5C208.8 148.2 231.2 160.9 246.1 181.3C253.8 191.9 259.1 204 261.9 217.2C264.8 231 264.7 245.4 261.6 260.1C256.1 286.5 241.4 310.8 220 328.6C198.9 346.2 173.2 355.9 147.7 355.9C144.2 355.9 140.7 355.7 137.2 355.4C111.3 352.7 88.8 340 73.9 319.6C66.2 309 60.9 296.9 58.1 283.7C55.2 269.9 55.3 255.5 58.4 240.8C63.8 214.4 78.6 190 99.9 172.3C121 154.7 146.7 145 172.3 145ZM172.3 135C114.9 135 60.9 179.3 48.5 238.7C35.3 302.1 74.5 358.8 136.1 365.3C140 365.7 143.8 365.9 147.7 365.9C205.1 365.9 259.1 321.6 271.4 262.2C284.6 198.8 245.4 142.1 183.8 135.6C180 135.2 176.1 135 172.3 135Z" fill="url(#paint2_linear_3603_35412)"/>
<g opacity="0.5">
<path opacity="0.3" d="M184.2 195.3C198.2 196.8 207.2 204.4 211.2 218.1C211.5 219.2 210.9 220.5 209.8 220.9L196.3 225.6C196 225.7 195.6 225.7 195.3 225.7C194.7 225.6 194.2 225.3 194.1 224.6C193 216.6 188.8 212.2 181.6 211.5C177.2 211 173.4 212.3 170.2 215C167 217.8 164.7 222.3 163.5 228.3C162.7 232.1 162.4 237.1 162.6 242.7C162.6 244.1 163.3 245.8 164.6 245.9L180.9 247.6C181.2 247.6 181.4 247.6 181.7 247.7C182.5 247.8 183.2 248 183 248.8L180.7 259.9C180.5 261.1 178.8 263.3 177.7 263.2L161.4 261.5C161.1 261.5 160.7 261.4 160.4 261.4C159.8 261.3 159.4 261.4 159.2 262.1C157.4 270.5 155.5 275.7 153.2 279.6C151 283.3 147.3 286.8 142 290.8C141.4 291.3 141.8 291.4 142.5 291.5L161.8 293.5C172.9 294.7 180.3 294.8 184.4 292.3C188 290.1 190.5 287.6 192.2 283.2C192.5 282.5 193.2 282.1 193.8 282.2C194 282.2 194.2 282.3 194.4 282.4L207 291.3C207.9 291.9 208.2 292.9 207.6 293.9C204.3 299.3 200.7 303.5 196.7 306.8C192.3 310.5 187.9 312.5 183.2 313.8C178.5 315.1 172.6 314.5 165 313.7L104.7 307.4C104.1 307.3 103.2 307.4 102.4 307.3C101.7 307.2 101.2 307 101.3 306.5L104.5 291.1C104.7 290 106.5 289.2 107.6 289.3C113.5 289.7 118.8 289.6 122.1 288.8C125.7 287.9 129 285.8 132.3 282.2C135.5 278.6 137.6 274.8 138.5 270.4C138.9 268.4 139.3 265.4 139.8 260.6C139.9 259.4 139 259.1 137.9 259L128.9 258.1C127.8 258 127.6 255.5 127.8 254.3L130.1 243.2C130.3 242.3 130.7 242.3 131.4 242.3C131.6 242.3 131.9 242.4 132.1 242.4L139.3 243.2C140.4 243.3 141.5 241.6 141.6 240.5C142 235.1 142.6 230.4 143.2 227.6C145.4 217.2 150.3 208.9 157.9 202.9C165.4 196.8 174.3 194.3 184.2 195.3Z" fill="black"/>
</g>
<path d="M126.8 254.3L135.7 255.2C136.3 255.3 136.9 255.4 137.3 255.7L131 250.1C130.7 249.8 130.1 249.7 129.4 249.6L122.9 249.8C122.7 249.8 122.5 250.8 122.4 250.7L126.4 254.2C126.5 254.2 126.6 254.3 126.8 254.3Z" fill="black"/>
<path d="M154.3 223.5C154.1 225.4 154 227.4 154 229.3C154 231.2 153.7 233.5 154.5 235.3C154.6 235.6 154.7 236.3 155 236.5L161.5 241.8C159.9 240.3 160.4 237.2 160.4 235.3C160.4 232.8 160.6 230.3 160.9 227.9C161.5 223.1 162.9 217.9 165.9 214C168.4 210.7 172.1 208.5 176.2 208.1C180 207.7 184.3 208.7 187.2 211.3C185.5 209.8 183.7 208.2 182 206.7C180.5 205.3 179 204.2 177 203.4C173 201.9 168.4 202.1 164.6 204.1C157.5 207.7 155.1 216.1 154.3 223.5C154.3 223.7 154.4 223.1 154.3 223.5Z" fill="black"/>
<path d="M149.8 256.3C148.8 260.5 147.5 264.7 145.5 268.5C144 271.1 142.2 273.5 140.1 275.6C138.9 276.7 137.7 277.8 136.4 278.9C135.4 279.7 134.3 280.4 133.4 281.3L133.3 281.4V281.5C133.3 281.5 133.3 281.5 133.3 281.6C134.4 282.6 135.5 283.6 136.6 284.5C137.2 285 137.7 285.5 138.3 286C138.6 286.2 138.9 286.5 139.1 286.7C139.2 286.8 139.7 287.4 139.6 287.1V287C139.6 286.9 139.7 286.9 139.7 286.9C140.6 285.9 141.9 285.2 143 284.3C144.2 283.3 145.5 282.2 146.6 281C148.7 278.9 150.5 276.7 151.8 274.1C153.2 271.7 154.1 268.9 154.9 266.3C155.3 264.9 155.7 263.4 156.1 261.9C156.3 261.2 156.4 260.5 156.6 259.8C156.7 259.2 156.8 258.4 157.1 257.9C157.4 257.3 158.6 257.7 159.1 257.7L175.3 259.4C175.8 259.5 176.3 259 176.7 258.7C177.3 258.1 177.8 257.4 178.2 256.6C178.3 256.4 178.3 256.3 178.4 256.1L180.7 245.1C180.7 244.9 180.8 244.6 180.6 244.4L180.5 244.3L175.8 240.5C175.8 240.5 176 240.6 176.1 240.6C176.2 240.8 175.4 240.3 175.4 240.5L172.1 250.4C172 251.1 171.5 251.7 171.1 252.3C170.7 252.9 169.9 253.8 169.1 253.7L152.9 252C152.4 252 152 251.8 151.5 251.9C151.4 251.9 151.3 251.9 151.2 252L151.1 252.1C150.9 252.2 150.9 252.5 150.8 252.6C150.4 253.8 150.1 255.1 149.8 256.3C149.8 256.4 149.9 255.8 149.8 256.3Z" fill="black"/>
<path d="M208.7 215.2C208.7 214.3 208.2 213.3 207.9 212.5C207.5 211.4 207.1 210.3 206.6 209.3C205.7 207.4 204.7 205.6 203.5 203.9C200.7 199.9 196.7 196.9 193.1 193.7C195.6 195.9 197.6 198.6 199.2 201.5C200 203 200.7 204.5 201.3 206.1C201.8 207.3 202.7 209 202.3 210.4C202.1 211.1 201.6 211.7 200.9 211.9L188 216.9C187.4 217.1 188.2 218.6 187.8 218.2L192.1 222C192.6 222.4 193.3 222.4 193.9 222.2L207.3 217.5C207.7 217.4 208.1 217.1 208.3 216.7C208.5 216.1 208.7 215.7 208.7 215.2C208.7 215.1 208.7 215.2 208.7 215.2Z" fill="black"/>
<path d="M205.2 288.8C205.2 288.6 205.1 288.3 205 288.1C204.9 288 204.8 287.8 204.7 287.7C203.8 286.7 202.7 285.9 201.7 285C200.5 283.9 199.3 282.9 198.1 281.8C199.6 283.1 198.2 284.7 197.4 286C196.1 288 194.6 290 193 291.8C189.9 295.4 186.3 298.5 182.1 300.8C178.4 302.8 174.3 304.3 170.1 304.6C165.5 304.9 160.8 304.3 156.2 303.9L96.4 297.6C95.5 297.5 96 299.8 95.2 299.1C96.8 300.5 96.2999 300 97.7999 301.4C98.4999 302 99.3 302.7 100.2 302.9C101 303.1 101.9 303.2 102.7 303.3L162.5 309.6C167 310.1 171.6 310.6 176.1 310.3C180.4 310 184.5 308.6 188.3 306.5C192.2 304.4 195.6 301.5 198.5 298.2C200 296.5 201.4 294.8 202.7 293C203.3 292.1 204 291.1 204.6 290.2C205 289.7 205.3 289.3 205.2 288.8C205.2 288.7 205.2 288.8 205.2 288.8Z" fill="black"/>
<path d="M177.5 188.3C191.4 189.8 200.3 197.3 204.3 210.9C204.6 212 204 213.3 202.9 213.6L189.5 218.3C189.2 218.4 188.8 218.4 188.5 218.4C187.9 218.3 187.4 218 187.3 217.4C186.2 209.5 182.1 205.1 174.9 204.4C170.6 203.9 166.8 205.2 163.6 207.9C160.4 210.6 158.2 215.1 156.9 221C156.1 224.7 155.8 229.7 156 235.3C156 236.6 156.7 238.4 158 238.5L174.2 240.2C174.5 240.2 174.7 240.2 175 240.3C175.8 240.4 176.5 240.6 176.3 241.4L174 252.4C173.8 253.5 172.1 255.8 171 255.7L154.8 254C154.5 254 154.1 253.9 153.8 253.9C153.2 253.8 152.8 253.9 152.6 254.6C150.8 263 148.9 268.1 146.6 271.9C144.4 275.6 140.7 279 135.5 283C134.9 283.5 135.3 283.6 136 283.7L155.2 285.7C166.2 286.9 173.5 286.9 177.6 284.5C181.2 282.3 183.6 279.9 185.3 275.5C185.6 274.8 186.3 274.4 186.9 274.5C187.1 274.5 187.3 274.6 187.5 274.7L200 283.6C200.9 284.2 201.2 285.2 200.6 286.2C197.3 291.6 193.8 295.7 189.8 299C185.5 302.6 181 304.7 176.4 305.9C171.8 307.2 165.9 306.6 158.4 305.8L98.6 299.5C98 299.4 97.1 299.5 96.3 299.4C95.6 299.3 95.1 299.1 95.2 298.6L98.4 283.3C98.6 282.2 100.4 281.4 101.4 281.5C107.3 281.9 112.5 281.8 115.7 281.1C119.2 280.2 122.6 278.1 125.8 274.5C129 270.9 131 267.2 131.9 262.8C132.3 260.9 132.7 257.9 133.2 253.1C133.3 251.9 132.4 251.6 131.3 251.5L122.4 250.6C121.3 250.5 121.1 248 121.3 246.9L123.6 235.9C123.8 235 124.2 235 124.9 235C125.1 235 125.3 235.1 125.6 235.1L132.8 235.9C133.9 236 135 234.4 135 233.2C135.4 227.8 136 223.2 136.6 220.4C138.7 210.1 143.6 201.9 151.2 195.9C158.8 189.8 167.6 187.3 177.5 188.3Z" fill="#FFE258"/>
<path d="M149.438 202.717L166.788 199.981L149.313 198.245L146.177 194.86L143.364 177.214L141.671 195.02L138.56 198.283L121.11 200.797L138.684 202.755L141.945 205.817L144.633 223.785L146.326 205.979L149.438 202.717Z" fill="white"/>
</g>
<defs>
<linearGradient id="paint0_linear_3603_35412" x1="88.4236" y1="33.1946" x2="22.9634" y2="291.712" gradientUnits="userSpaceOnUse">
<stop offset="0.199" stop-color="#FFE258"/>
<stop offset="0.791667" stop-color="#FFD23E"/>
<stop offset="1" stop-color="#FFBD37"/>
</linearGradient>
<linearGradient id="paint1_linear_3603_35412" x1="217.301" y1="-25.9413" x2="169.407" y2="167.215" gradientUnits="userSpaceOnUse">
<stop offset="0.199" stop-color="#FFE258"/>
<stop offset="0.791667" stop-color="#FFD23E"/>
<stop offset="1" stop-color="#FFBD37"/>
</linearGradient>
<linearGradient id="paint2_linear_3603_35412" x1="205.163" y1="72.2469" x2="86.9753" y2="538.242" gradientUnits="userSpaceOnUse">
<stop offset="0.199" stop-color="#FFE258"/>
<stop offset="0.791667" stop-color="#FFD23E"/>
<stop offset="1" stop-color="#FFBD37"/>
</linearGradient>
<clipPath id="clip0_3603_35412">
<rect width="134" height="137" fill="white" transform="translate(0 68)"/>
</clipPath>
<clipPath id="clip1_3603_35412">
<rect width="102" height="105" fill="white" transform="translate(150)"/>
</clipPath>
<clipPath id="clip2_3603_35412">
<rect width="241.2" height="247" fill="white" transform="translate(46 135)"/>
</clipPath>
</defs>
</svg>
