<svg xmlns="http://www.w3.org/2000/svg" width="30" height="30" viewBox="0 0 7.937 7.937" xmlns:v="https://vecta.io/nano"><path d="M1.352 7.927H6.82V6.049a1.36 1.36 0 0 0-.417-.976c-.267-.259-.629-.404-1.006-.404h-.362v-.376l.025-.02a1.65 1.65 0 0 0 .517-.579c.122-.23.187-.485.187-.744V1.259c.001-.214-.062-.424-.18-.606S5.299.327 5.099.235c-.313-.157-.66-.241-1.013-.246-.353.004-.699.088-1.013.246-.2.092-.368.237-.486.418s-.18.391-.18.606v1.687c.001.259.065.514.187.744a1.65 1.65 0 0 0 .517.579l.025.02v.376h-.362a1.46 1.46 0 0 0-.546.105c-.173.07-.33.172-.462.3a1.38 1.38 0 0 0-.308.449c-.071.168-.108.348-.107.53zm4.051-2.91c.282.001.552.11.751.303a1.02 1.02 0 0 1 .312.728v1.53h-2.2V5.86l.678-.854zm-1.316.508l-.59-.737v-.312l.084.025c.33.101.683.101 1.013 0l.084-.025v.307zm1.319-3.759l-.025.025c-.096.065-.205.11-.32.133s-.233.023-.348 0a3.25 3.25 0 0 0-1.251 0 .84.84 0 0 1-.175.017.88.88 0 0 1-.494-.15l-.025-.02v-.064l.025-.022a1.51 1.51 0 0 1 .253-.145c.326-.144.682-.215 1.041-.209.357-.006.711.065 1.035.209a1.51 1.51 0 0 1 .253.145l.025.02zM2.772 1.18c.014-.138.066-.269.15-.381a.8.8 0 0 1 .328-.255 1.95 1.95 0 0 1 .835-.204 1.95 1.95 0 0 1 .835.204.8.8 0 0 1 .328.255c.084.112.136.243.15.381v.11l-.104-.049A2.8 2.8 0 0 0 4.073.996c-.422-.01-.84.074-1.223.246l-.104.049zm0 1.77v-.768l.086.032a1.26 1.26 0 0 0 .681.052 2.87 2.87 0 0 1 1.104 0c.227.046.464.028.681-.052l.086-.032v.768a1.26 1.26 0 0 1-.386.905 1.34 1.34 0 0 1-.933.375 1.34 1.34 0 0 1-.933-.375 1.26 1.26 0 0 1-.386-.905zM1.711 6.049a1.02 1.02 0 0 1 .312-.728c.199-.193.469-.302.751-.303h.453l.678.854v1.719H1.711z" fill="#000"/><path d="M5.67 5.843h-.87v.313h.87z" fill="#f2ba00"/><path d="M4.617 2.743a.16.16 0 0 0 .162-.157c0-.087-.072-.157-.162-.157s-.162.07-.162.157.072.157.162.157zM3.555 2.43c-.032 0-.063.01-.089.027s-.047.042-.059.071-.015.06-.008.09a.16.16 0 0 0 .045.08c.023.022.052.036.083.042s.064.003.093-.009a.16.16 0 0 0 .072-.058c.018-.026.027-.056.027-.087 0-.021-.004-.041-.013-.06s-.02-.037-.036-.051-.033-.026-.053-.034a.15.15 0 0 0-.063-.011z" fill="#000"/></svg>