<svg width="15" height="20" viewBox="0 0 15 20" fill="none" xmlns="http://www.w3.org/2000/svg">
<rect x="2" y="2" width="11" height="11" fill="#FBCA27"/>
<path fill-rule="evenodd" clip-rule="evenodd" d="M3 0C1.34315 0 0 1.34315 0 3V17C0 18.6569 1.34315 20 3 20H12C13.6569 20 15 18.6569 15 17V3C15 1.34315 13.6569 0 12 0H3ZM2 3C2 2.44772 2.44772 2 3 2H12C12.5523 2 13 2.44772 13 3V17C13 17.5523 12.5523 18 12 18H3C2.44772 18 2 17.5523 2 17V3ZM7.5 17C8.32843 17 9 16.3284 9 15.5C9 14.6716 8.32843 14 7.5 14C6.67157 14 6 14.6716 6 15.5C6 16.3284 6.67157 17 7.5 17Z" fill="black"/>
</svg>
