<svg xmlns="http://www.w3.org/2000/svg" width="20" height="20" viewBox="0 0 5.292 5.292" xmlns:v="https://vecta.io/nano"><path d="M3.402 2.646a.76.76 0 0 1-.756.756.76.76 0 0 1-.756-.756.76.76 0 0 1 .756-.756.76.76 0 0 1 .756.756zm.408 0a1.16 1.16 0 0 0-1.164-1.164 1.16 1.16 0 0 0-1.164 1.164A1.16 1.16 0 0 0 2.646 3.81 1.16 1.16 0 0 0 3.81 2.646zm.319-1.211a.27.27 0 1 0-.543 0 .27.27 0 1 0 .543 0zM2.646.786c.331 0 1.039-.027 1.338.092.103.041.18.092.26.171s.13.157.171.26c.118.298.092 1.007.092 1.338s.027 1.04-.092 1.338c-.041.103-.092.18-.171.26s-.157.13-.26.171c-.298.118-1.007.092-1.338.092s-1.039.027-1.338-.092c-.103-.041-.18-.092-.26-.171s-.13-.157-.171-.26C.759 3.686.786 2.977.786 2.646S.759 1.607.877 1.308c.041-.103.092-.18.171-.26s.157-.13.26-.171C1.607.759 2.315.786 2.646.786zm2.268 1.86l-.015-.936c-.018-.363-.1-.685-.366-.951S3.945.41 3.582.393L2.646.378c-.313 0-.623-.003-.936.015-.363.018-.685.1-.951.366s-.348.588-.366.951l-.015.936.015.936c.018.363.1.685.366.951s.588.348.951.366l.936.015.936-.015c.363-.018.685-.1.951-.366s.348-.588.366-.951l.015-.936z"/></svg>