<svg xmlns="http://www.w3.org/2000/svg" width="30" height="30" viewBox="0 0 7.937 7.937" xmlns:v="https://vecta.io/nano"><path d="M5.433 3.725h1.952v1.22H5.433zM.552 1.04h5.369v.732H.552z" fill="#f2ba00"/><path d="M7.22 3.56h-.174V2.513c0-.428-.348-.775-.775-.775H6.11l.001-.389c0-.288-.234-.523-.523-.523H.943c-.347 0-.631.279-.635.626v5.136c0 .288.234.523.523.523h5.442c.428 0 .775-.348.775-.775V5.288h.174a.41.41 0 0 0 .408-.408v-.911a.41.41 0 0 0-.41-.408zM.943 1.187h4.646c.089 0 .162.072.162.161l-.001.39H.943c-.152 0-.275-.123-.275-.275s.123-.276.275-.276zm5.742 5.148c0 .228-.186.414-.414.414H.829c-.089 0-.162-.072-.162-.162V2.036a.63.63 0 0 0 .276.063h5.328c.228 0 .414.186.414.414V3.56h-1.23a.41.41 0 0 0-.408.408v.911a.41.41 0 0 0 .408.408h1.23zm.583-1.455c0 .027-.021.048-.048.048H5.457c-.027 0-.048-.021-.048-.048v-.911c0-.026.021-.048.048-.048H7.22c.026 0 .048.021.048.048z" fill="#000"/></svg>