<svg xmlns="http://www.w3.org/2000/svg" width="20" height="20" viewBox="0 0 5.292 5.292" xmlns:v="https://vecta.io/nano"><path d="M4.961 1.836a.58.58 0 0 1-.579.579.58.58 0 0 1-.579-.579.58.58 0 0 1-.579.579.58.58 0 0 1-.579-.579.58.58 0 0 1-.579.579.58.58 0 0 1-.579-.579.58.58 0 0 1-.579.579.58.58 0 0 1-.579-.579L.653.581S.72.331.956.331h3.38c.236 0 .303.25.303.25zm-.232.857v1.806c0 .255-.208.463-.463.463H1.025c-.255 0-.463-.208-.463-.463V2.692a.91.91 0 0 0 .347.069c.22 0 .421-.076.579-.204.16.127.361.204.579.204s.421-.076.579-.204c.16.127.361.204.579.204s.421-.076.579-.204a.92.92 0 0 0 .579.204.91.91 0 0 0 .347-.069zM4.267 3.88c0-.046 0-.095-.012-.146l-.007-.037h-.688v.271h.419c-.014.051-.032.102-.072.144a.41.41 0 0 1-.292.118c-.116 0-.229-.049-.313-.13-.16-.164-.16-.431.005-.597s.424-.162.59-.007l.032.03.194-.197-.037-.032c-.13-.12-.301-.188-.482-.188h-.002c-.188 0-.363.072-.495.201a.69.69 0 0 0-.213.493c0 .185.072.357.204.484a.74.74 0 0 0 .514.211h.005a.66.66 0 0 0 .47-.185c.109-.111.178-.278.178-.433z"/></svg>