<svg xmlns="http://www.w3.org/2000/svg" width="22" height="22" viewBox="0 0 5.821 5.821" xmlns:v="https://vecta.io/nano"><path fill-rule="evenodd" d="M2.938.016C1.627.016.556 1.072.556 2.377c0 .822.52 1.65 1.001 2.249A8.83 8.83 0 0 0 2.593 5.71a.53.53 0 0 0 .689 0c.045-.039.545-.472 1.036-1.084.481-.599 1.001-1.427 1.001-2.249 0-1.305-1.071-2.361-2.381-2.361zM1.086 2.377c0-1.007.829-1.832 1.852-1.832S4.79 1.37 4.79 2.377c0 .627-.413 1.33-.884 1.918a8.32 8.32 0 0 1-.968 1.013 8.31 8.31 0 0 1-.968-1.013c-.472-.588-.884-1.291-.884-1.918z" fill="#000"/><path d="M2.144 2.133c0 .438.356.794.794.794s.794-.356.794-.794-.356-.794-.794-.794-.794.356-.794.794z" fill="#fbca27"/></svg>