<svg xmlns="http://www.w3.org/2000/svg" width="36" height="15" viewBox="0 0 9.525 3.969" fill-rule="evenodd" fill="#000" xmlns:v="https://vecta.io/nano"><path d="M9.154 3.227c0-.084.068-.152.152-.152s.152.068.152.152-.068.152-.152.152-.152-.068-.152-.152zm.152.115c.064 0 .116-.052.116-.115s-.052-.116-.116-.116-.115.052-.115.116.052.115.115.115zm-.02-.049h-.031V3.16h.056c.012 0 .024 0 .034.007s.017.02.017.033-.009.029-.023.035l.024.059h-.035l-.02-.053h-.023zm0-.076h.017c.024-.006.027-.012.027-.018-.013-.017-.022-.016-.027-.016h-.017zm-.883.171h.675L8.49.583h-.591c-.273 0-.34.209-.34.209L6.463 3.388h.766l.153-.417h.935zm-.809-.993l.386-1.05.217 1.05zM6.521 1.257l.105-.603S6.302.532 5.964.532c-.365 0-1.231.158-1.231.929 0 .725 1.017.734 1.017 1.114s-.912.313-1.213.073l-.109.63a2.07 2.07 0 0 0 .83.159c.502 0 1.259-.258 1.259-.961 0-.729-1.026-.798-1.026-1.115s.716-.276 1.031-.104zM3.973 3.388h-.735l.46-2.805h.735zm-2.054-.875L2.62.583h.791l-1.17 2.806h-.766L.837.951C.422.704.068.63.068.63s.557.115 1.091.544c.51.41.677.921.677.923m.083.415l-.083-.416zm-.083-.416h0z"/><path d="M1.836 2.097L1.589.836S1.559.583 1.24.583H.082L.068.63c0 0 .557.115 1.091.544.511.411.677.923.677.923z"/></svg>