<svg xmlns="http://www.w3.org/2000/svg" width="30" height="30" viewBox="0 0 7.937 7.937" xmlns:v="https://vecta.io/nano"><g transform="matrix(.2646 0 0 .2646 0 .092572)" fill="none"><g stroke="#000"><rect x="3.65" y="4.222" width="22.7" height="22.7" rx="2.35" stroke-width="1.3"/><g stroke-width="1.4"><path d="M3 10.429h24"/><path d="M8.714 2.429V7m12.572-4.571V7" stroke-linecap="round"/></g></g><path d="M14.164 16.798c.112-.714.462-1.456 1.036-2.24.672-.896 1.274-1.232 1.274-1.316 0-.364-.644-.686-1.204-.686-.294 0-1.288.546-2.268 1.806-1.022 1.316-1.54 2.758-1.54 4.228 0 2.436 1.372 3.892 3.724 3.892 2.24 0 3.738-1.442 3.738-3.472 0-1.778-1.134-2.982-2.688-2.982-.7 0-1.386.266-2.072.77zm2.296 3.108c0 .84-.42 1.344-1.036 1.344-.7 0-1.288-.882-1.288-2.198 0-.84.434-1.358.994-1.358.728 0 1.33.868 1.33 2.212z" fill="#efb123"/></g></svg>