<svg width="114" height="15" viewBox="0 0 114 15" fill="none" xmlns="http://www.w3.org/2000/svg">
<path fill-rule="evenodd" clip-rule="evenodd" d="M34.7766 12.162C34.7766 11.8446 35.034 11.5874 35.3513 11.5874C35.6692 11.5874 35.9261 11.8446 35.9261 12.162C35.9261 12.4792 35.6692 12.7367 35.3513 12.7367C35.034 12.7367 34.7766 12.4792 34.7766 12.162ZM35.3516 12.5983C35.5936 12.5983 35.7888 12.4029 35.7888 12.162C35.7888 11.9202 35.5936 11.7254 35.3516 11.7254C35.1108 11.7254 34.9153 11.9202 34.9153 12.162C34.9153 12.4029 35.1108 12.5983 35.3516 12.5983ZM35.2752 12.4144H35.1576V11.9098H35.3708C35.4153 11.9098 35.4603 11.9103 35.4997 11.9351C35.5405 11.9637 35.5636 12.0112 35.5636 12.0613C35.5636 12.1189 35.5307 12.1723 35.4766 12.192L35.5689 12.4144H35.4381L35.3616 12.2145H35.2752V12.4144ZM35.2754 12.1279H35.3401C35.3646 12.1279 35.3907 12.1302 35.4121 12.1186C35.4315 12.106 35.4417 12.0824 35.4417 12.0599C35.4417 12.0413 35.4298 12.0188 35.4132 12.009C35.3924 11.9969 35.3598 11.9994 35.3378 11.9994H35.2754V12.1279Z" fill="black"/>
<path fill-rule="evenodd" clip-rule="evenodd" d="M31.9413 12.7729H34.4926L32.2683 2.16992H30.0349C29.0033 2.16992 28.7516 2.95972 28.7516 2.95972L24.6082 12.7729H27.5041L28.0831 11.1983H31.6157L31.9413 12.7729ZM28.8848 9.02195L30.3445 5.05315L31.1662 9.02195H28.8848Z" fill="black"/>
<path fill-rule="evenodd" clip-rule="evenodd" d="M24.8255 4.71926L25.2223 2.44223C25.2223 2.44223 23.9983 1.97998 22.7232 1.97998C21.3441 1.97998 18.0696 2.57875 18.0696 5.49014C18.0696 8.22987 21.9133 8.26411 21.9133 9.70178C21.9133 11.1404 18.4659 10.8835 17.3277 9.97616L16.915 12.3564C16.915 12.3564 18.1553 12.9556 20.0517 12.9556C21.9473 12.9556 24.8087 11.9797 24.8087 9.32558C24.8087 6.56873 20.9306 6.31147 20.9306 5.11303C20.9306 3.91415 23.6369 4.06823 24.8255 4.71926Z" fill="black"/>
<path fill-rule="evenodd" clip-rule="evenodd" d="M15.199 12.7729H12.4207L14.157 2.16992H16.9363L15.199 12.7729Z" fill="black"/>
<path fill-rule="evenodd" clip-rule="evenodd" d="M7.4366 9.46379L10.0854 2.1709H13.076L8.65509 12.7739H5.76009L3.34669 3.56217C1.77902 2.62684 0.439907 2.35021 0.439453 2.35021C0.439907 2.35021 2.54495 2.78363 4.56382 4.40693C6.49189 5.95757 7.12124 7.88888 7.12279 7.89364M7.4366 9.46379L7.12279 7.8932L7.4366 9.46379ZM7.12279 7.8932L7.12279 7.89365L7.12279 7.8932Z" fill="black"/>
<path fill-rule="evenodd" clip-rule="evenodd" d="M7.12279 7.89365L6.18772 3.12559C6.18772 3.12559 6.07526 2.1709 4.86992 2.1709H0.490696L0.439453 2.35021C0.439907 2.35021 2.54495 2.78363 4.56382 4.40693C6.49427 5.95949 7.12279 7.89365 7.12279 7.89365Z" fill="black"/>
<path d="M64.4578 1.53467H58.1775V12.8181H64.4578V1.53467Z" fill="#4B3D0C"/>
<path d="M58.5762 7.17844C58.5751 6.0916 58.8213 5.01876 59.2962 4.04113C59.7712 3.06351 60.4625 2.20675 61.3176 1.53572C60.2588 0.703803 58.9872 0.186484 57.6481 0.0428873C56.3091 -0.10071 54.9567 0.135207 53.7454 0.723675C52.5341 1.31214 51.5129 2.22942 50.7984 3.37067C50.084 4.51192 49.7051 5.8311 49.7051 7.17744C49.7051 8.52378 50.084 9.84296 50.7984 10.9842C51.5129 12.1255 52.5341 13.0427 53.7454 13.6312C54.9567 14.2197 56.3091 14.4556 57.6481 14.312C58.9872 14.1684 60.2588 13.6511 61.3176 12.8192C60.4627 12.1483 59.7716 11.2919 59.2967 10.3146C58.8217 9.33739 58.5754 8.26493 58.5762 7.17844Z" fill="black"/>
<path d="M72.932 7.17731C72.9319 8.52375 72.553 9.84302 71.8384 10.9843C71.1238 12.1256 70.1024 13.0429 68.891 13.6312C67.6796 14.2196 66.327 14.4554 64.9879 14.3116C63.6488 14.1678 62.3771 13.6502 61.3184 12.818C62.1729 12.1466 62.8638 11.2899 63.3389 10.3126C63.814 9.33533 64.0608 8.26292 64.0608 7.17632C64.0608 6.08972 63.814 5.01731 63.3389 4.04C62.8638 3.06269 62.1729 2.20601 61.3184 1.53459C62.3771 0.702419 63.6488 0.184849 64.9879 0.0410461C66.327 -0.102757 67.6796 0.133008 68.891 0.721392C70.1024 1.30978 71.1238 2.22704 71.8384 3.36833C72.553 4.50962 72.9319 5.82888 72.932 7.17532V7.17731Z" fill="#806714"/>
<path d="M72.2456 11.6218V11.3906H72.3393V11.3428H72.1021V11.3906H72.2037V11.6218H72.2456ZM72.7062 11.6218V11.3428H72.6344L72.5506 11.5421L72.4669 11.3428H72.4031V11.6218H72.4549V11.4125L72.5327 11.5939H72.5865L72.6643 11.4125V11.6238L72.7062 11.6218Z" fill="black"/>
<path d="M113.178 1.85938H104.1C106.188 3.18747 107.442 5.49997 107.415 7.97429C107.442 10.4484 106.189 12.7609 104.101 14.0892H113.765C113.895 14.0892 114 13.9839 114 13.854V2.09456C114 1.96467 113.895 1.85938 113.765 1.85938H113.178ZM113.059 12.6781C113.059 12.9378 112.849 13.1484 112.589 13.1484H110.707C110.448 13.1484 110.237 12.9378 110.237 12.6781C110.237 12.4183 110.448 12.2077 110.707 12.2077H112.119V10.7966C112.119 10.5368 112.329 10.3262 112.589 10.3262C112.849 10.3262 113.059 10.5368 113.059 10.7966V12.6781ZM113.059 5.15202C113.059 5.4118 112.849 5.6224 112.589 5.6224C112.329 5.6224 112.119 5.4118 112.119 5.15202V3.74089H110.707C110.448 3.74089 110.237 3.53029 110.237 3.27051C110.237 3.01073 110.448 2.80013 110.707 2.80013H112.589C112.849 2.80013 113.059 3.01073 113.059 3.27051V5.15202Z" fill="black"/>
<path d="M94.2445 7.97478C94.2176 5.50064 95.4708 3.18818 97.5583 1.85986H87.8944C87.7645 1.85986 87.6592 1.96516 87.6592 2.09505V13.8545C87.6592 13.9844 87.7645 14.0897 87.8944 14.0897H97.5583C95.4708 12.7614 94.2176 10.4489 94.2445 7.97478ZM90.9518 13.1489H89.0703C88.8105 13.1489 88.5999 12.9383 88.5999 12.6786V10.797C88.5999 10.5373 88.8105 10.3267 89.0703 10.3267C89.3301 10.3267 89.5407 10.5373 89.5407 10.797V12.2082H90.9518C91.2116 12.2082 91.4222 12.4188 91.4222 12.6786C91.4222 12.9383 91.2116 13.1489 90.9518 13.1489ZM90.9518 3.74137H89.5407V5.15251C89.5407 5.41229 89.3301 5.62289 89.0703 5.62289C88.8105 5.62289 88.5999 5.41229 88.5999 5.15251V3.271C88.5999 3.01121 88.8105 2.80062 89.0703 2.80062H90.9518C91.2116 2.80062 91.4222 3.01121 91.4222 3.271C91.4222 3.53078 91.2116 3.74137 90.9518 3.74137Z" fill="black"/>
<path fill-rule="evenodd" clip-rule="evenodd" d="M101.137 14.1537C104.255 14.1537 106.782 11.4157 106.782 8.03827C106.782 4.66082 104.255 1.92285 101.137 1.92285C98.0188 1.92285 95.4912 4.66082 95.4912 8.03827C95.4912 11.4157 98.0188 14.1537 101.137 14.1537ZM101.995 5.69997C102.321 5.69997 102.669 5.784 103.04 5.95207L103.284 5.18377C102.924 4.98903 102.473 4.89166 101.931 4.89166C101.616 4.89166 101.342 4.93435 101.107 5.01971C100.875 5.10241 100.688 5.21312 100.547 5.35184C100.405 5.48789 100.292 5.66129 100.207 5.87204C100.121 6.08278 100.062 6.29753 100.03 6.51628C100.001 6.73236 99.9865 6.98046 99.9865 7.26056V7.46064H99.2582V8.23294H99.9985V8.34098C99.9985 8.50637 99.9905 8.65843 99.9745 8.79715C99.9611 8.9332 99.9358 9.05592 99.8984 9.16529C99.8637 9.272 99.8317 9.36137 99.8024 9.43339C99.7757 9.50542 99.7317 9.58012 99.6703 9.65748C99.609 9.73484 99.565 9.78953 99.5383 9.82154C99.5116 9.85088 99.4609 9.8989 99.3862 9.9656C99.3142 10.0323 99.2715 10.0723 99.2582 10.0856V10.8299H103.388V10.0136H100.687C100.804 9.85088 100.883 9.63747 100.923 9.37337C100.965 9.10927 100.987 8.77047 100.987 8.35698V8.23294H102.343V7.46064H100.991V7.03248C100.991 6.5523 101.071 6.21083 101.231 6.00809C101.391 5.80268 101.646 5.69997 101.995 5.69997Z" fill="black"/>
</svg>
