<svg width="219" height="22" viewBox="0 0 219 22" fill="none" xmlns="http://www.w3.org/2000/svg">
<path d="M10.1978 12.3551C9.81051 12.3551 9.56079 12.4704 9.44867 12.7008C9.34674 12.9313 9.29577 13.4674 9.29577 14.3091C9.29577 15.5817 9.37732 16.5737 9.5404 17.2852C9.59136 17.4856 9.66781 17.6409 9.76974 17.7511C9.87166 17.8613 10.0653 17.9966 10.3507 18.1569C10.9623 18.4876 11.2681 18.9235 11.2681 19.4646C11.2681 20.1259 10.84 20.5969 9.98378 20.8775C9.13779 21.148 7.70061 21.2833 5.67226 21.2833C1.90094 21.2833 0.0152891 20.5819 0.0152891 19.179C0.0152891 18.9385 0.0713492 18.7481 0.183469 18.6078C0.295589 18.4575 0.550408 18.2521 0.947924 17.9916C1.3964 17.701 1.69709 17.3603 1.84998 16.9695C2.01307 16.5687 2.12519 15.8823 2.18634 14.9103C2.23731 14.1989 2.26279 11.6487 2.26279 7.25977C2.26279 5.86693 2.19144 4.92001 2.04874 4.41899C1.90604 3.91797 1.60026 3.55223 1.13139 3.32176C0.682913 3.11133 0.382228 2.92094 0.229337 2.75059C0.0764455 2.57023 0 2.33976 0 2.05919C0 1.68843 0.142698 1.36778 0.428095 1.09723C0.723684 0.816661 1.13139 0.611243 1.65122 0.480978C2.08951 0.370754 2.69088 0.315642 3.45534 0.315642C3.7917 0.315642 4.6326 0.365744 5.97804 0.465948C6.23286 0.485988 6.63547 0.496009 7.18588 0.496009C8.10322 0.496009 9.32635 0.435887 10.8553 0.315642C11.8236 0.245499 12.5014 0.210428 12.8887 0.210428C15.07 0.210428 16.8741 0.726478 18.3011 1.75858C19.5853 2.69047 20.2275 3.9831 20.2275 5.63646C20.2275 6.55834 20.0032 7.40005 19.5548 8.1616C19.1063 8.91313 18.4896 9.47928 17.7048 9.86005C17.3786 10.0204 17.2155 10.2108 17.2155 10.4312C17.2155 10.7218 17.4653 10.9573 17.9647 11.1377C19.0349 11.5184 19.8198 12.0946 20.3192 12.8662C20.8187 13.6377 21.1754 14.8201 21.3895 16.4134C21.4812 17.0747 21.6137 17.5056 21.787 17.706C21.9602 17.8964 22.3629 18.0818 22.9948 18.2621C23.1885 18.3223 23.3516 18.4525 23.4841 18.6529C23.6166 18.8433 23.6828 19.0588 23.6828 19.2993C23.6828 19.6099 23.5605 19.9255 23.3159 20.2462C23.0713 20.5568 22.7553 20.8023 22.368 20.9827C21.5118 21.3735 20.3396 21.5689 18.8515 21.5689C16.8639 21.5689 15.442 21.0528 14.5858 20.0207C14.1985 19.5598 13.8672 18.9786 13.592 18.2772C13.327 17.5757 13.011 16.4835 12.6441 15.0005C12.4097 14.0486 12.109 13.3772 11.742 12.9864C11.3853 12.5956 10.8706 12.3852 10.1978 12.3551ZM9.31106 4.68954L9.14288 8.19166C9.14288 8.22172 9.14288 8.26681 9.14288 8.32694C9.14288 8.68767 9.19385 8.92816 9.29577 9.0484C9.40789 9.16865 9.62704 9.22877 9.95321 9.22877C10.8502 9.22877 11.5025 9.00331 11.9102 8.55239C12.3179 8.09146 12.5218 7.35997 12.5218 6.35793C12.5218 4.424 11.8236 3.45703 10.4272 3.45703C10.0297 3.45703 9.74935 3.54721 9.58627 3.72758C9.42318 3.90795 9.33145 4.2286 9.31106 4.68954Z" fill="black"/>
<path d="M33.0618 6.86897V15.0155C33.0618 16.7591 33.6479 17.6309 34.82 17.6309C35.1156 17.6309 35.4061 17.5507 35.6915 17.3904C35.9769 17.22 36.1756 17.0146 36.2878 16.7741C36.512 16.2931 36.6241 15.221 36.6241 13.5576C36.6241 11.9142 36.5681 10.792 36.4559 10.1907C36.4152 9.94022 36.3438 9.75985 36.2419 9.64963C36.14 9.52938 35.9463 9.39411 35.6609 9.2438C35.0799 8.94319 34.7894 8.56242 34.7894 8.10148C34.7894 7.48021 35.2889 7.04934 36.2878 6.80885C38.1836 6.34791 40.054 6.11744 41.8989 6.11744C42.9283 6.11744 43.4431 6.65353 43.4431 7.72571C43.4431 7.83594 43.438 8.0614 43.4278 8.40209C43.4074 8.88307 43.3921 9.46926 43.3819 10.1607V16.7891C43.3819 17.1298 43.6775 17.4405 44.2687 17.721C44.7681 17.9615 45.0178 18.3122 45.0178 18.7732C45.0178 19.675 43.9323 20.3714 41.7613 20.8624C40.4872 21.153 39.2539 21.2983 38.0613 21.2983C37.5721 21.2983 37.2357 21.2432 37.0522 21.133C36.8789 21.0228 36.777 20.8073 36.7464 20.4867C36.6955 19.8654 36.5018 19.5548 36.1655 19.5548C36.0431 19.5548 35.931 19.5848 35.8291 19.645C35.7272 19.6951 35.4163 19.8955 34.8965 20.2462C33.867 20.9376 32.7611 21.2833 31.5787 21.2833C29.6217 21.2833 28.2406 20.7272 27.4354 19.6149C26.7525 18.683 26.411 17.1148 26.411 14.9103C26.411 14.0887 26.4161 13.3872 26.4263 12.806C26.4263 12.4654 26.4263 12.2349 26.4263 12.1146C26.4263 11.2529 26.3448 10.6216 26.1817 10.2208C26.0288 9.80995 25.7434 9.4893 25.3255 9.25883C24.928 9.05842 24.6731 8.8981 24.561 8.77785C24.4591 8.65761 24.4081 8.49227 24.4081 8.28185C24.4081 7.5203 24.9942 7.01427 26.1664 6.76376C28.1642 6.33288 30.1619 6.11744 32.1597 6.11744C32.7611 6.11744 33.0618 6.36795 33.0618 6.86897Z" fill="black"/>
<path d="M55.1612 1.36778L54.9625 7.2297C54.9625 7.36999 54.9625 7.48021 54.9625 7.56038C54.9625 7.76078 55.0287 7.86099 55.1612 7.86099C55.2326 7.86099 55.4365 7.72571 55.7728 7.45516C56.9654 6.49321 58.2802 6.01223 59.7174 6.01223C61.1444 6.01223 62.4032 6.51826 63.4938 7.53032C64.8596 8.80291 65.5425 10.4613 65.5425 12.5054C65.5425 15.4214 64.4366 17.7511 62.2248 19.4947C60.6347 20.7572 58.7695 21.3885 56.629 21.3885C55.569 21.3885 54.6108 21.2532 53.7547 20.9827C52.9087 20.7221 51.9811 20.2712 50.972 19.6299C50.8191 19.5397 50.6968 19.4947 50.6051 19.4947C50.493 19.4947 50.177 19.5898 49.6572 19.7802C49.3922 19.8804 49.0813 19.9305 48.7245 19.9305C48.0926 19.9305 47.7766 19.7301 47.7766 19.3293C47.7766 19.1991 47.8021 19.0487 47.8531 18.8784C48.0569 18.2271 48.1945 17.4204 48.2659 16.4585C48.3372 15.4965 48.3729 13.9734 48.3729 11.8892V7.74074C48.3729 6.70864 48.3321 6.06233 48.2506 5.8018C48.169 5.54127 47.9397 5.33585 47.5626 5.18555C47.0325 4.9651 46.6656 4.74966 46.4617 4.53923C46.2579 4.31878 46.156 4.04322 46.156 3.71255C46.156 3.04119 46.8847 2.38485 48.3423 1.74355C49.1373 1.40285 50.126 1.10725 51.3084 0.856743C52.5009 0.596213 53.5202 0.465948 54.3662 0.465948C54.9064 0.465948 55.1714 0.766559 55.1612 1.36778ZM56.4761 10.5364C55.9257 10.5364 55.5282 10.7218 55.2836 11.0926C55.0899 11.3731 54.9931 11.9443 54.9931 12.806C54.9931 15.1608 55.0746 16.7491 55.2377 17.5707C55.3804 18.3323 55.8136 18.7131 56.5373 18.7131C57.2813 18.7131 57.847 18.4024 58.2344 17.7812C58.6217 17.1599 58.8153 16.2581 58.8153 15.0757C58.8153 13.3321 58.4892 12.0595 57.8368 11.2579C57.4597 10.797 57.0061 10.5565 56.4761 10.5364Z" fill="black"/>
<path d="M75.9153 1.36778L75.7165 7.2297C75.7165 7.36999 75.7165 7.48021 75.7165 7.56038C75.7165 7.76078 75.7828 7.86099 75.9153 7.86099C75.9866 7.86099 76.1905 7.72571 76.5268 7.45516C77.7194 6.49321 79.0343 6.01223 80.4714 6.01223C81.8984 6.01223 83.1572 6.51826 84.2479 7.53032C85.6137 8.80291 86.2966 10.4613 86.2966 12.5054C86.2966 15.4214 85.1907 17.7511 82.9789 19.4947C81.3888 20.7572 79.5235 21.3885 77.383 21.3885C76.323 21.3885 75.3649 21.2532 74.5087 20.9827C73.6627 20.7221 72.7352 20.2712 71.7261 19.6299C71.5732 19.5397 71.4509 19.4947 71.3591 19.4947C71.247 19.4947 70.931 19.5898 70.4112 19.7802C70.1462 19.8804 69.8353 19.9305 69.4786 19.9305C68.8466 19.9305 68.5306 19.7301 68.5306 19.3293C68.5306 19.1991 68.5561 19.0487 68.6071 18.8784C68.811 18.2271 68.9486 17.4204 69.0199 16.4585C69.0913 15.4965 69.1269 13.9734 69.1269 11.8892V7.74074C69.1269 6.70864 69.0862 6.06233 69.0046 5.8018C68.9231 5.54127 68.6937 5.33585 68.3166 5.18555C67.7866 4.9651 67.4196 4.74966 67.2158 4.53923C67.0119 4.31878 66.91 4.04322 66.91 3.71255C66.91 3.04119 67.6388 2.38485 69.0963 1.74355C69.8914 1.40285 70.8801 1.10725 72.0624 0.856743C73.255 0.596213 74.2743 0.465948 75.1203 0.465948C75.6605 0.465948 75.9255 0.766559 75.9153 1.36778ZM77.2301 10.5364C76.6797 10.5364 76.2822 10.7218 76.0376 11.0926C75.8439 11.3731 75.7471 11.9443 75.7471 12.806C75.7471 15.1608 75.8286 16.7491 75.9917 17.5707C76.1344 18.3323 76.5676 18.7131 77.2913 18.7131C78.0354 18.7131 78.6011 18.4024 78.9884 17.7812C79.3757 17.1599 79.5694 16.2581 79.5694 15.0757C79.5694 13.3321 79.2432 12.0595 78.5909 11.2579C78.2138 10.797 77.7602 10.5565 77.2301 10.5364Z" fill="black"/>
<path d="M96.8528 7.04934V15.7821C96.8528 16.4735 96.9139 16.9795 97.0363 17.3002C97.1688 17.6208 97.4287 17.9164 97.816 18.187C98.132 18.4074 98.3409 18.5978 98.4429 18.7582C98.555 18.9085 98.611 19.1039 98.611 19.3443C98.611 20.637 96.9445 21.2833 93.6115 21.2833C91.8176 21.2833 90.3957 21.143 89.3458 20.8624C88.9891 20.7622 88.6986 20.5869 88.4744 20.3364C88.2603 20.0859 88.1533 19.8003 88.1533 19.4796C88.1533 19.2091 88.2094 18.9986 88.3215 18.8483C88.4336 18.698 88.719 18.4575 89.1777 18.1269C89.4936 17.8964 89.7179 17.5206 89.8504 16.9996C89.9829 16.4785 90.0491 15.7019 90.0491 14.6698C90.0491 14.3392 90.0237 13.7229 89.9727 12.8211C89.9319 11.9092 89.9013 11.3781 89.881 11.2278C89.8198 10.817 89.5344 10.5014 89.0248 10.2809C88.3928 10.0104 88.0769 9.60955 88.0769 9.07847C88.0769 8.44718 88.4896 7.97622 89.3153 7.66559C90.4568 7.23471 91.68 6.86897 92.9846 6.56836C94.2893 6.26775 95.2984 6.11744 96.0119 6.11744C96.5725 6.11744 96.8528 6.42807 96.8528 7.04934ZM93.8256 0.465948C94.7123 0.465948 95.4156 0.631284 95.9354 0.961957C96.4553 1.28261 96.7152 1.7185 96.7152 2.26962C96.7152 3.04119 96.3228 3.65243 95.5379 4.10335C94.2944 4.81479 92.791 5.17052 91.0276 5.17052C90.2836 5.17052 89.6924 5.03023 89.2541 4.74966C88.6629 4.38893 88.3673 3.88791 88.3673 3.2466C88.3673 2.38485 88.9942 1.70847 90.2479 1.21748C91.522 0.716457 92.7145 0.465948 93.8256 0.465948Z" fill="black"/>
<path d="M106.568 6.01223C107.078 6.01223 107.908 6.12245 109.06 6.3429C109.295 6.38298 109.488 6.40302 109.641 6.40302C109.814 6.40302 110.151 6.31284 110.65 6.13247C110.885 6.04229 111.083 5.9972 111.247 5.9972C111.715 5.9972 112.189 6.2928 112.668 6.884C113.056 7.35496 113.372 7.87101 113.616 8.43215C113.861 8.99329 113.983 9.47928 113.983 9.89012C113.983 10.2909 113.841 10.6266 113.555 10.8972C113.27 11.1577 112.913 11.288 112.485 11.288C112.128 11.288 111.807 11.2028 111.522 11.0324C111.247 10.8621 110.798 10.4863 110.176 9.90515C109.524 9.28388 108.984 8.97325 108.556 8.97325C108.27 8.97325 108.021 9.07846 107.807 9.28889C107.603 9.4893 107.501 9.72979 107.501 10.0104C107.501 10.5014 107.98 10.9623 108.938 11.3932C110.66 12.1547 111.98 12.9864 112.898 13.8882C113.672 14.6498 114.06 15.5817 114.06 16.6839C114.06 18.0768 113.438 19.2391 112.194 20.171C111.124 20.9827 109.814 21.3885 108.265 21.3885C107.868 21.3885 107.144 21.3234 106.094 21.1931C105.105 21.0829 104.55 21.0278 104.428 21.0278C104.295 21.0278 104.142 21.0428 103.969 21.0729C103.673 21.1129 103.459 21.133 103.327 21.133C102.848 21.133 102.471 21.0127 102.195 20.7722C101.778 20.4015 101.39 19.8203 101.033 19.0287C100.677 18.2271 100.498 17.5407 100.498 16.9695C100.498 16.0476 100.865 15.5867 101.599 15.5867C101.885 15.5867 102.144 15.6819 102.379 15.8723C102.624 16.0527 103.128 16.5436 103.893 17.3453C104.31 17.7862 104.657 18.0918 104.932 18.2621C105.207 18.4225 105.503 18.5026 105.819 18.5026C106.155 18.5026 106.425 18.4175 106.629 18.2471C106.833 18.0667 106.935 17.8313 106.935 17.5407C106.935 17.0898 106.543 16.6789 105.758 16.3082C104.117 15.5166 102.929 14.6999 102.195 13.8582C101.472 13.0165 101.11 12.0445 101.11 10.9423C101.11 9.74983 101.482 8.72274 102.226 7.86099C103.286 6.62848 104.733 6.01223 106.568 6.01223Z" fill="black"/>
<path d="M124.815 1.20245L124.616 7.50026C124.596 8.25178 124.83 8.62755 125.319 8.62755C125.564 8.62755 125.803 8.46221 126.038 8.13154C127.027 6.71867 128.347 6.01223 129.998 6.01223C131.618 6.01223 132.908 6.49822 133.866 7.47019C134.294 7.90107 134.595 8.41211 134.768 9.00331C134.951 9.59451 135.053 10.4412 135.074 11.5435L135.211 16.9695C135.222 17.4405 135.283 17.7862 135.395 18.0066C135.517 18.2271 135.792 18.5026 136.22 18.8333C136.516 19.0638 136.664 19.3393 136.664 19.66C136.664 20.7422 135.002 21.2833 131.68 21.2833C128.724 21.2833 127.246 20.7773 127.246 19.7652C127.246 19.5949 127.271 19.4646 127.322 19.3744C127.373 19.2842 127.551 19.0437 127.857 18.6529C128.285 18.1018 128.499 16.724 128.499 14.5195C128.499 13.1868 128.372 12.2148 128.117 11.6036C127.781 10.7719 127.179 10.3561 126.313 10.3561C125.691 10.3561 125.233 10.5765 124.937 11.0174C124.723 11.3381 124.616 11.9393 124.616 12.8211V15.722C124.687 17.0046 124.748 17.7311 124.799 17.9014C124.85 18.0718 125.085 18.3874 125.503 18.8483C125.696 19.0588 125.793 19.3043 125.793 19.5848C125.793 20.7171 124.295 21.2833 121.298 21.2833C117.792 21.2833 116.039 20.6971 116.039 19.5247C116.039 19.2542 116.095 19.0487 116.207 18.9085C116.319 18.7582 116.594 18.5327 117.033 18.2321C117.42 17.9615 117.685 17.2351 117.828 16.0527C117.98 14.8602 118.057 12.8912 118.057 10.1456C118.057 7.99125 117.996 6.49822 117.873 5.66653C117.833 5.35589 117.756 5.13043 117.644 4.99015C117.542 4.83984 117.343 4.68954 117.048 4.53923C116.416 4.21858 116.1 3.84783 116.1 3.42697C116.1 2.92595 116.339 2.52013 116.819 2.20949C117.298 1.89886 118.215 1.56318 119.571 1.20245C121.405 0.701427 122.868 0.450917 123.959 0.450917C124.55 0.450917 124.835 0.701427 124.815 1.20245Z" fill="black"/>
<path d="M155.391 0.465948H163.448C164.315 0.435887 165.105 0.320652 165.818 0.120245C166.124 0.0400815 166.394 0 166.629 0C167.454 0 168.254 0.601223 169.029 1.80367C169.814 3.00611 170.206 4.24363 170.206 5.51622C170.206 6.38799 169.936 7.02429 169.396 7.4251C168.988 7.72571 168.499 7.87602 167.928 7.87602C167.388 7.87602 166.919 7.73072 166.522 7.44013C166.124 7.13952 165.732 6.64852 165.344 5.96714C165.008 5.34587 164.743 4.94005 164.549 4.74966C164.356 4.55927 164.121 4.46408 163.846 4.46408C163.469 4.46408 163.199 4.6194 163.036 4.93003C162.873 5.24066 162.791 5.7517 162.791 6.46315V14.8803C162.791 15.742 162.883 16.3683 163.066 16.7591C163.25 17.1499 163.596 17.4505 164.106 17.6609C164.656 17.8914 165.028 18.1118 165.222 18.3223C165.426 18.5227 165.528 18.8032 165.528 19.164C165.528 19.8854 165.028 20.4215 164.029 20.7722C163.041 21.123 161.517 21.2983 159.458 21.2983C156.93 21.2983 155.055 21.0929 153.832 20.6821C152.802 20.3414 152.287 19.7903 152.287 19.0287C152.287 18.6179 152.471 18.2972 152.838 18.0667C152.93 18.0166 153.291 17.8964 153.923 17.706C154.311 17.5958 154.576 17.3854 154.718 17.0747C154.871 16.7641 154.994 16.1679 155.085 15.2861C155.167 14.5045 155.243 13.2419 155.315 11.4984C155.386 9.74482 155.422 8.22673 155.422 6.94412C155.422 6.04229 155.35 5.40099 155.208 5.02021C155.065 4.63944 154.831 4.44905 154.504 4.44905C154.107 4.44905 153.719 4.72962 153.342 5.29076C152.659 6.31284 152.099 6.98922 151.661 7.31989C151.141 7.71068 150.636 7.90608 150.147 7.90608C149.597 7.90608 149.143 7.70567 148.786 7.30486C148.429 6.89402 148.251 6.37296 148.251 5.74168C148.251 5.12041 148.394 4.43903 148.679 3.69752C148.965 2.94599 149.347 2.25459 149.826 1.6233C150.601 0.601223 151.365 0.0901834 152.119 0.0901834C152.323 0.0901834 152.558 0.120245 152.823 0.180367C153.373 0.290591 153.821 0.365744 154.168 0.405825C154.525 0.445907 154.932 0.465948 155.391 0.465948Z" fill="black"/>
<path d="M178.836 5.9972C180.61 5.9972 182.113 6.43809 183.346 7.31989C183.999 7.79085 184.452 8.33195 184.707 8.94319C184.972 9.54441 185.105 10.3761 185.105 11.4383L185.074 13.6778C185.074 15.231 185.186 16.238 185.41 16.699C185.522 16.9194 185.629 17.0597 185.731 17.1198C185.833 17.1799 186.047 17.2351 186.374 17.2852C186.7 17.3353 186.863 17.5457 186.863 17.9164C186.863 18.3974 186.664 18.8984 186.267 19.4195C185.879 19.9406 185.375 20.3764 184.753 20.7272C183.988 21.1681 183.188 21.3885 182.353 21.3885C181.282 21.3885 180.436 21.0278 179.815 20.3063C179.6 20.0458 179.402 19.9155 179.218 19.9155C179.014 19.9155 178.744 20.0408 178.408 20.2913C177.389 21.0228 176.232 21.3885 174.937 21.3885C173.602 21.3885 172.522 21.1079 171.696 20.5468C171.156 20.176 170.728 19.6951 170.412 19.1039C170.096 18.5026 169.938 17.8764 169.938 17.225C169.938 16.1829 170.366 15.261 171.222 14.4594C172.557 13.1968 174.555 12.5605 177.215 12.5505C177.807 12.5505 178.179 12.4954 178.331 12.3852C178.484 12.2649 178.561 11.9944 178.561 11.5735C178.561 10.5114 178.449 9.74482 178.224 9.27386C178 8.79288 177.633 8.55239 177.124 8.55239C176.818 8.55239 176.543 8.64258 176.298 8.82295C176.064 9.00331 175.768 9.33399 175.411 9.81496C174.504 11.0876 173.556 11.7238 172.567 11.7238C172.068 11.7238 171.66 11.5786 171.344 11.288C171.028 10.9974 170.87 10.6166 170.87 10.1456C170.87 9.66466 171.064 9.18368 171.451 8.7027C171.849 8.22172 172.384 7.80087 173.057 7.44013C174.902 6.47818 176.828 5.9972 178.836 5.9972ZM177.812 14.6999C177.363 14.6999 176.971 14.8803 176.634 15.241C176.308 15.6017 176.145 16.0326 176.145 16.5336C176.145 17.0146 176.262 17.4054 176.497 17.706C176.731 17.9966 177.042 18.1419 177.429 18.1419C178.245 18.1419 178.653 17.4655 178.653 16.1128C178.653 15.5617 178.591 15.1909 178.469 15.0005C178.357 14.8101 178.138 14.7099 177.812 14.6999Z" fill="black"/>
<path d="M193.597 12.5656L192.297 10.9723C191.737 10.2809 191.298 9.81496 190.982 9.57447C190.666 9.33399 190.269 9.16364 189.79 9.06343C188.985 8.89309 188.582 8.51231 188.582 7.92111C188.582 7.30987 189.097 6.85895 190.126 6.56836C191.166 6.26775 192.766 6.11744 194.927 6.11744C196.497 6.11744 197.664 6.20262 198.428 6.37296C199.274 6.57337 199.697 6.97418 199.697 7.57541C199.697 7.80588 199.529 8.18164 199.193 8.7027C199.131 8.8029 199.101 8.90812 199.101 9.01834C199.101 9.22877 199.259 9.53439 199.575 9.93521C199.901 10.336 200.146 10.5364 200.309 10.5364C200.492 10.5364 200.762 10.316 201.119 9.87508C201.476 9.42417 201.654 9.08849 201.654 8.86804C201.654 8.70771 201.542 8.46722 201.318 8.14657C201.124 7.866 201.027 7.64555 201.027 7.48522C201.027 7.26478 201.109 7.04934 201.272 6.83891C201.445 6.62848 201.659 6.47317 201.914 6.37296C202.373 6.1926 203.147 6.10241 204.238 6.10241C205.186 6.10241 205.843 6.1926 206.21 6.37296C206.72 6.63349 206.975 7.00425 206.975 7.48522C206.975 7.74575 206.903 7.94115 206.761 8.07142C206.618 8.20168 206.256 8.40209 205.675 8.67264C205.359 8.82295 205.12 8.99329 204.957 9.18368C204.793 9.36405 204.228 10.0955 203.259 11.3781L202.204 12.9413C202.082 13.1117 202.021 13.2269 202.021 13.287C202.021 13.3271 202.077 13.4373 202.189 13.6177L203.107 14.9855C204.085 16.4384 204.809 17.3854 205.278 17.8263C205.502 18.0367 205.864 18.2521 206.363 18.4726C206.832 18.673 207.066 19.0137 207.066 19.4947C207.066 20.176 206.638 20.647 205.782 20.9075C204.926 21.158 203.361 21.2833 201.088 21.2833C199.345 21.2833 198.127 21.2031 197.434 21.0428C196.517 20.8224 196.058 20.3564 196.058 19.645C196.058 19.2241 196.323 18.8934 196.853 18.6529C197.149 18.5227 197.297 18.3022 197.297 17.9916C197.297 17.6609 197.088 17.21 196.67 16.6388C196.252 16.0577 195.926 15.7721 195.691 15.7821C195.447 15.7921 195.085 16.1529 194.606 16.8643C194.127 17.5757 193.887 18.1118 193.887 18.4726C193.887 18.6429 194.01 18.8734 194.254 19.164C194.468 19.4045 194.575 19.675 194.575 19.9756C194.575 20.8474 193.53 21.2833 191.441 21.2833C190.299 21.2833 189.479 21.1731 188.979 20.9526C188.48 20.7322 188.23 20.3714 188.23 19.8704C188.23 19.5498 188.307 19.3193 188.46 19.179C188.623 19.0287 188.918 18.9135 189.346 18.8333C189.795 18.7531 190.136 18.5728 190.371 18.2922C190.605 18.0116 191.329 16.9294 192.542 15.0456L193.643 13.257C193.745 13.0966 193.795 12.9814 193.795 12.9113C193.795 12.8511 193.729 12.7359 193.597 12.5656Z" fill="black"/>
<path d="M217.088 7.04934V15.7821C217.088 16.4735 217.149 16.9795 217.271 17.3002C217.404 17.6208 217.663 17.9164 218.051 18.187C218.367 18.4074 218.576 18.5978 218.678 18.7582C218.79 18.9085 218.846 19.1039 218.846 19.3443C218.846 20.637 217.179 21.2833 213.846 21.2833C212.052 21.2833 210.63 21.143 209.581 20.8624C209.224 20.7622 208.933 20.5869 208.709 20.3364C208.495 20.0859 208.388 19.8003 208.388 19.4796C208.388 19.2091 208.444 18.9986 208.556 18.8483C208.668 18.698 208.954 18.4575 209.412 18.1269C209.728 17.8964 209.953 17.5206 210.085 16.9996C210.218 16.4785 210.284 15.7019 210.284 14.6698C210.284 14.3392 210.258 13.7229 210.207 12.8211C210.167 11.9092 210.136 11.3781 210.116 11.2278C210.055 10.817 209.769 10.5014 209.26 10.2809C208.628 10.0104 208.312 9.60955 208.312 9.07847C208.312 8.44718 208.724 7.97622 209.55 7.66559C210.692 7.23471 211.915 6.86897 213.219 6.56836C214.524 6.26775 215.533 6.11744 216.247 6.11744C216.807 6.11744 217.088 6.42807 217.088 7.04934ZM214.06 0.465948C214.947 0.465948 215.65 0.631284 216.17 0.961957C216.69 1.28261 216.95 1.7185 216.95 2.26962C216.95 3.04119 216.557 3.65243 215.773 4.10335C214.529 4.81479 213.026 5.17052 211.262 5.17052C210.518 5.17052 209.927 5.03023 209.489 4.74966C208.898 4.38893 208.602 3.88791 208.602 3.2466C208.602 2.38485 209.229 1.70847 210.483 1.21748C211.757 0.716457 212.949 0.465948 214.06 0.465948Z" fill="black"/>
</svg>
