<svg width="109" height="21" viewBox="0 0 109 21" fill="none" xmlns="http://www.w3.org/2000/svg">
<path d="M0.751447 20.1363H6.60095C6.89403 20.1363 7.04057 20.1058 7.09553 20.0875C7.11995 20.0325 7.16269 19.8919 7.16269 19.5741V10.8477H4.87296V18.2603H2.57102V1.8768H4.87296V8.54385H7.16269V0.569052C7.16269 0.232949 7.11385 0.11073 7.10163 0.0923968L7.05889 0.0496201C7.065 0.061842 6.94898 0.000732422 6.59484 0.000732422H0.751447C0.433938 0.000732422 0.287395 0.0435091 0.232441 0.067953C0.214123 0.129063 0.183594 0.275726 0.183594 0.569052V19.5741C0.183594 19.8491 0.214123 20.008 0.232441 20.0875C0.317925 20.1058 0.470573 20.1363 0.751447 20.1363Z" fill="black"/>
<path d="M10.0351 20.1356H16.019C16.3243 20.1356 16.4525 20.0928 16.483 20.0806C16.4769 20.0684 16.538 19.9339 16.538 19.5673V0.568319C16.538 0.232216 16.4891 0.109997 16.4769 0.0916644L16.4342 0.0488877C16.4403 0.0488877 16.3487 0 16.0251 0H10.0412C9.72373 0 9.57719 0.0427767 9.52834 0.0672205C9.51002 0.122219 9.47949 0.268882 9.47949 0.562208V19.5673C9.47949 19.8423 9.51002 20.0012 9.52834 20.0806C9.60161 20.1051 9.76037 20.1356 10.0351 20.1356ZM11.8547 1.87606H14.1566V18.2595H11.8547V1.87606Z" fill="black"/>
<path d="M19.414 20.1356H25.2635C25.5566 20.1356 25.7032 20.1051 25.7581 20.0867C25.7826 20.0317 25.8253 19.8912 25.8253 19.5734V9.13588C25.8253 8.79978 25.7764 8.67756 25.7642 8.65923L25.7215 8.62256C25.7276 8.63478 25.6116 8.57367 25.2574 8.57367H21.2275V1.87606H23.5295V6.26984H25.8192V0.568319C25.8192 0.232216 25.7703 0.109997 25.7581 0.0916644L25.7154 0.0488877C25.7276 0.0611096 25.6116 0 25.2574 0H19.4079C19.0904 0 18.9439 0.0427767 18.895 0.0672205C18.8767 0.122219 18.8462 0.268882 18.8462 0.562208V9.9242C18.8462 10.1747 18.8706 10.3153 18.895 10.3947C18.9744 10.4192 19.1332 10.4436 19.414 10.4436H23.444V18.2534H21.142V12.7902H18.8523V19.5612C18.8523 19.8362 18.8828 19.9951 18.9011 20.0745C18.9744 20.1051 19.1332 20.1356 19.414 20.1356Z" fill="black"/>
<path d="M39.8887 20.1356V0.568319C39.8887 0.232216 39.8399 0.109997 39.8277 0.0916644L39.7849 0.0488877C39.7727 0.0427767 39.6384 0 39.3697 0H28.1287V20.1356H30.5161V1.87606H32.818V20.1356H35.2055V1.87606H37.5562V20.1356H39.8887V20.1356Z" fill="black"/>
<path d="M42.8105 20.1356H48.7944C49.0997 20.1356 49.2279 20.0928 49.2584 20.0806C49.2523 20.0684 49.3134 19.9339 49.3134 19.5673V0.568319C49.3134 0.232216 49.2645 0.109997 49.2523 0.0916644L49.2096 0.0488877C49.2096 0.0549986 49.118 0 48.7944 0H42.8105C42.493 0 42.3465 0.0427767 42.2976 0.0672205C42.2793 0.122219 42.2488 0.268882 42.2488 0.562208V19.5673C42.2488 19.8423 42.2793 20.0012 42.2976 20.0806C42.377 20.1051 42.5358 20.1356 42.8105 20.1356ZM44.6301 1.87606H46.932V18.2595H44.6301V1.87606Z" fill="black"/>
<path d="M52.1892 20.1356H58.0387C58.3745 20.1356 58.515 20.0928 58.5577 20.0806C58.5455 20.0684 58.6065 19.9278 58.6065 19.5734V9.13588C58.6065 8.76311 58.5455 8.65312 58.5394 8.65312L58.515 8.62867C58.4905 8.61645 58.3684 8.56756 58.0387 8.56756H54.0088V1.87606H56.3107V6.26984H58.6004V0.568319C58.6004 0.195551 58.5394 0.0855534 58.5333 0.0855534L58.5088 0.0611096C58.4905 0.0488877 58.3684 0 58.0326 0H52.1831C51.8656 0 51.719 0.0427767 51.6702 0.0672205C51.6519 0.122219 51.6213 0.268882 51.6213 0.562208V9.9242C51.6213 10.1747 51.6458 10.3153 51.6702 10.3947C51.7496 10.4192 51.9083 10.4436 52.1892 10.4436H56.2191V18.2534H53.9172V12.7902H51.6274V19.5612C51.6274 19.8362 51.658 19.9951 51.6763 20.0745C51.7496 20.1051 51.9083 20.1356 52.1892 20.1356Z" fill="black"/>
<path d="M64.5505 20.1356H70.3939C70.7297 20.1356 70.8702 20.0928 70.9129 20.0806C70.9068 20.0684 70.9618 19.9278 70.9618 19.5734V9.13588C70.9618 8.76311 70.9007 8.65312 70.8946 8.65312L70.8702 8.62867C70.8457 8.61645 70.7236 8.56756 70.3939 8.56756H66.364V1.87606H68.6659V6.26984H70.9557V0.568319C70.9557 0.195551 70.8946 0.0855534 70.8885 0.0855534L70.8641 0.0611096C70.8519 0.0488877 70.7297 0 70.3939 0H64.5444C64.2269 0 64.0804 0.0488877 64.0315 0.0672205C64.0132 0.12833 63.9827 0.268882 63.9827 0.562208V9.9242C63.9827 10.1747 64.0071 10.3153 64.0315 10.3947C64.1109 10.4192 64.2696 10.4436 64.5505 10.4436H68.5804V18.2534H66.2785V12.7902H63.9888V19.5612C63.9888 19.8423 64.0193 19.9951 64.0376 20.0745C64.117 20.1051 64.2696 20.1356 64.5505 20.1356Z" fill="black"/>
<path d="M77.2776 0H72.2463V1.87606H73.5469V20.1356H75.9343V1.87606H77.2776V0Z" fill="black"/>
<path d="M79.0984 20.1356H84.9906C85.2959 20.1356 85.4241 20.0928 85.4547 20.0806C85.4485 20.0684 85.5096 19.9278 85.5096 19.5673V0H83.2199V18.2595H80.9179V0H78.5305V19.5673C78.5305 19.8484 78.561 20.0012 78.5794 20.0806C78.6648 20.1051 78.8236 20.1356 79.0984 20.1356Z" fill="black"/>
<path d="M94.9493 1.03275C94.9493 0.378879 94.8089 0.201662 94.7784 0.171107C94.7478 0.134441 94.5952 0 93.9174 0H87.8726V20.1356H93.9174C94.5891 20.1356 94.7478 20.0012 94.7478 19.9951L94.754 19.9889C94.8761 19.8606 94.9493 19.549 94.9493 19.1029V1.03275ZM92.5619 18.2595H90.26V1.87606H92.5619V18.2595Z" fill="black"/>
<path d="M99.6401 0H97.2527V20.1356H99.6401V0Z" fill="black"/>
<path d="M102.497 20.1329H108.481C108.786 20.1329 108.914 20.0901 108.945 20.0779C108.939 20.0657 109 19.9313 109 19.5646V0.565626C109 0.229523 108.951 0.107304 108.939 0.0889714L108.908 0.0584166C108.884 0.0461947 108.774 0.00341797 108.481 0.00341797H102.497C102.179 0.00341797 102.033 0.0523056 101.984 0.0706385C101.966 0.131748 101.935 0.2723 101.935 0.565626V19.5707C101.935 19.8518 101.966 20.0046 101.984 20.084C102.063 20.1024 102.222 20.1329 102.497 20.1329ZM104.316 1.87337H106.618V18.2569H104.316V1.87337Z" fill="black"/>
</svg>
