<svg xmlns="http://www.w3.org/2000/svg" width="32" height="32" viewBox="0 0 8.467 8.467" xmlns:v="https://vecta.io/nano"><path d="M3.782 5.922c0 .541-.171.992-.512 1.353a1.72 1.72 0 0 1-1.294.531c-.568 0-1.04-.24-1.415-.721S0 5.989 0 5.241c0-.508.1-1.055.301-1.643.207-.588.512-1.216.913-1.884.254-.414.451-.691.592-.832.14-.147.278-.22.411-.22.234 0 .468.06.702.18.234.114.351.22.351.321 0 .073-.181.397-.542.972-.354.568-.532 1.029-.532 1.383 0 .247.164.458.492.631l.13.07c.334.194.579.428.732.701.154.267.231.601.231 1.002zm4.685 0c0 .541-.171.992-.512 1.353a1.72 1.72 0 0 1-1.294.531c-.568 0-1.04-.24-1.415-.721s-.562-1.096-.562-1.844c0-.514.1-1.065.301-1.653.201-.595.498-1.219.893-1.874.241-.394.435-.668.582-.822.154-.154.301-.23.441-.23.234 0 .465.06.692.18.227.114.341.22.341.321 0 .073-.177.397-.532.972-.348.568-.522 1.029-.522 1.383 0 .254.161.464.482.631l.12.07c.341.194.589.428.742.701.161.274.241.608.241 1.002z"/></svg>